<svg xmlns="http://www.w3.org/2000/svg" width="35.694" height="32.122"><g data-name="Group 28" fill="#cd9e69"><path data-name="Path 96" d="M27.417 9.679h-.007a4.859 4.859 0 01-4.869-4.84 4.861 4.861 0 014.876-4.842 4.859 4.859 0 014.869 4.84 4.869 4.869 0 01-4.869 4.84z"/><path data-name="Path 97" d="M17.845 20.615c2.584 0 5.018 1.935 6.346 5.054a3.925 3.925 0 01-1.028 4.489 7.99 7.99 0 01-4.391 1.942l-.085.007c-.279.007-.556.014-.835.014s-.556-.007-.835-.014l-.085-.007a7.937 7.937 0 01-4.391-1.942 3.925 3.925 0 01-1.027-4.489c1.312-3.12 3.746-5.054 6.33-5.054z"/><path data-name="Path 98" d="M17.845 19.415a3.519 3.519 0 01-3.526-3.505 3.516 3.516 0 013.526-3.505 3.519 3.519 0 013.526 3.505 3.519 3.519 0 01-3.526 3.505z"/><path data-name="Path 99" d="M8.287 9.679h-.014a3.8 3.8 0 01-3.8-3.784 3.8 3.8 0 013.812-3.784 3.806 3.806 0 013.807 3.783 3.813 3.813 0 01-3.8 3.784z"/><path data-name="Path 100" d="M.042 18.616a8.578 8.578 0 014.283-6.71 7.826 7.826 0 013.94-1.1h.021a8.14 8.14 0 014.869 1.714l.442.329-.279.478a5.163 5.163 0 00-.7 2.592 5.177 5.177 0 001.263 3.377l.457.528-.586.385a10.67 10.67 0 00-3.819 4.811c-.021.057-.043.107-.064.165a5.328 5.328 0 00.514 4.791l.407.636-1.826-.774a22.418 22.418 0 01-5.868-3.634 8.815 8.815 0 01-3.054-7.588z"/><path data-name="Path 101" d="M25.832 25.175c-.021-.057-.043-.107-.064-.165a10.707 10.707 0 00-3.819-4.811l-.586-.385.457-.528a5.17 5.17 0 001.264-3.376 5.171 5.171 0 00-.7-2.592l-.28-.478.442-.329a8.154 8.154 0 014.862-1.707h.014a7.8 7.8 0 013.947 1.1 8.578 8.578 0 014.283 6.71 8.811 8.811 0 01-3.062 7.589 22.293 22.293 0 01-5.868 3.633l-2.013.864.45-.629a5.16 5.16 0 00.672-4.9z"/></g></svg>