<svg data-name="Component 3 – 7" xmlns="http://www.w3.org/2000/svg" width="45" height="45"><path data-name="Path 58" d="M18.48 25.961l-2.88-1.693v-5.927l5.138 2.992v3.33a.532.532 0 00.564.564.532.532 0 00.564-.564v-2.71l2.6 1.524a.5.5 0 00.282.057.669.669 0 00.507-.282.569.569 0 00-.225-.789l-2.6-1.469 2.315-1.354a.622.622 0 00.225-.789.622.622 0 00-.79-.226l-2.88 1.693-5.136-2.993 5.138-2.992 2.878 1.692a.5.5 0 00.282.057.669.669 0 00.507-.282.569.569 0 00-.225-.789l-2.315-1.354 2.6-1.524a.622.622 0 00.225-.789.622.622 0 00-.789-.225l-2.6 1.524v-2.71a.532.532 0 00-.564-.564.532.532 0 00-.564.564v3.33L15.6 16.256v-5.819l2.88-1.693a.622.622 0 00.225-.789.622.622 0 00-.789-.225L15.6 9.138V6.091a.532.532 0 00-.564-.564.532.532 0 00-.564.564v3.047l-2.315-1.354a.569.569 0 00-.789.225.569.569 0 00.225.789l2.88 1.693v5.985l-5.14-2.991v-3.33a.532.532 0 00-.564-.564.532.532 0 00-.564.564v2.71l-2.6-1.524a.569.569 0 00-.789.225.569.569 0 00.225.789l2.6 1.524-2.315 1.354a.622.622 0 00-.225.789.591.591 0 00.507.282.5.5 0 00.282-.057l2.88-1.693 5.138 2.992-5.138 2.992-2.88-1.693a.569.569 0 00-.789.225.569.569 0 00.225.789l2.315 1.354-2.6 1.524a.622.622 0 00-.225.789.591.591 0 00.507.282.5.5 0 00.282-.057l2.6-1.524v2.71a.532.532 0 00.564.564.532.532 0 00.564-.564v-3.33l5.138-2.992V24.6l-2.88 1.693a.622.622 0 00-.225.789.591.591 0 00.507.282.5.5 0 00.282-.057l2.315-1.354V29a.532.532 0 00.564.564.532.532 0 00.564-.564v-3.047l2.315 1.354a.5.5 0 00.282.057.669.669 0 00.507-.282c.17-.615.057-.953-.225-1.122z" fill="#cd9e69"/><path data-name="Path 59" d="M29.599 37.532l-3.33-1.918 3.33-1.918a.622.622 0 00.225-.789.622.622 0 00-.789-.225l-3.33 1.918v-3.839a.532.532 0 00-.564-.564.532.532 0 00-.564.564V34.6l-3.33-1.918a.569.569 0 00-.789.225.569.569 0 00.225.789l3.33 1.918-3.33 1.918a.622.622 0 00-.225.789.591.591 0 00.507.282.5.5 0 00.282-.057l3.33-1.918v3.839a.532.532 0 00.564.564.532.532 0 00.564-.564v-3.839l3.33 1.918a.5.5 0 00.282.057.669.669 0 00.507-.282.57.57 0 00-.225-.789z" fill="#cd9e69"/><path data-name="Path 60" d="M39.195 24.831l-3.33-1.918 3.33-1.918a.622.622 0 00.225-.789.622.622 0 00-.789-.225l-3.33 1.918V18.06a.532.532 0 00-.564-.564.532.532 0 00-.564.564v3.839l-3.33-1.918a.569.569 0 00-.789.225.569.569 0 00.225.789l3.33 1.918-3.33 1.918a.622.622 0 00-.225.789.591.591 0 00.507.282.5.5 0 00.282-.057l3.33-1.918v3.839a.532.532 0 00.564.564.532.532 0 00.564-.564v-3.839l3.33 1.918a.5.5 0 00.282.057.669.669 0 00.507-.282.624.624 0 00-.225-.789z" fill="#963f2c"/></svg>