<svg data-name="Component 2 – 42" xmlns="http://www.w3.org/2000/svg" width="41" height="41"><path data-name="Path 61" d="M20.654 23.432a2.869 2.869 0 01-2.652-1.772 2.869 2.869 0 01.622-3.128 2.869 2.869 0 013.128-.622 2.869 2.869 0 011.773 2.652 2.871 2.871 0 01-2.871 2.87zm0-4.509a1.639 1.639 0 00-1.514 1.012 1.635 1.635 0 00.356 1.785 1.635 1.635 0 001.785.356 1.639 1.639 0 001.012-1.514 1.644 1.644 0 00-1.639-1.638z" fill="#cd9e69"/><path data-name="Path 62" d="M20.657 36.392a.616.616 0 01-.616-.616V22.841a.616.616 0 01.616-.616.616.616 0 01.616.616v12.935a.617.617 0 01-.18.436.617.617 0 01-.436.18z" fill="#cd9e69"/><path data-name="Path 63" d="M20.657 18.923a.616.616 0 01-.616-.616V5.347a.616.616 0 01.616-.616.616.616 0 01.616.616v12.94a.618.618 0 01-.171.451.616.616 0 01-.445.189z" fill="#cd9e69"/><path data-name="Path 64" d="M20.652 12.375a.615.615 0 01-.468-.216l-4.09-4.792a.615.615 0 01.068-.869.615.615 0 01.869.068l4.09 4.792a.615.615 0 01.091.658.615.615 0 01-.559.359z" fill="#cd9e69"/><path data-name="Path 65" d="M20.654 12.375a.623.623 0 01-.357-.117.621.621 0 01-.251-.4.62.62 0 01.109-.46 34.471 34.471 0 013.018-3.61c.382-.413.745-.8 1.109-1.232a.615.615 0 01.869-.068.615.615 0 01.068.869c-.37.431-.745.832-1.146 1.232a34.344 34.344 0 00-2.9 3.53.614.614 0 01-.524.259z" fill="#cd9e69"/><path data-name="Path 66" d="M16.564 35.413a.615.615 0 01-.4-.148.612.612 0 01-.214-.42.618.618 0 01.146-.448l4.09-4.792a.621.621 0 01.425-.213.625.625 0 01.45.151.62.62 0 01.062.875l-4.09 4.792a.614.614 0 01-.468.2z" fill="#cd9e69"/><path data-name="Path 67" d="M24.75 35.412a.615.615 0 01-.468-.216l-4.1-4.78a.615.615 0 01.068-.869.615.615 0 01.869.068l4.1 4.792a.618.618 0 01.146.448.612.612 0 01-.214.42.621.621 0 01-.4.136z" fill="#cd9e69"/><path data-name="Path 68" d="M31.415 31.932a.612.612 0 01-.437-.179l-9.184-9.16a.616.616 0 010-.869.613.613 0 01.437-.182.613.613 0 01.437.182l9.184 9.154a.613.613 0 01.182.437.613.613 0 01-.182.437.612.612 0 01-.437.179z" fill="#cd9e69"/><path data-name="Path 69" d="M19.059 19.582a.621.621 0 01-.431-.185l-4.583-4.577-.055-.049-4.512-4.527a.613.613 0 01-.182-.437.613.613 0 01.182-.437.616.616 0 01.869 0l4.478 4.478.055.049 4.632 4.632a.616.616 0 010 .869.616.616 0 01-.45.185z" fill="#cd9e69"/><path data-name="Path 70" d="M14.433 14.95h-.031l-6.283-.493a.618.618 0 01-.563-.665.618.618 0 01.665-.567l6.283.5a.616.616 0 01.591.641.616.616 0 01-.641.591z" fill="#cd9e69"/><path data-name="Path 71" d="M14.433 14.95a.615.615 0 01-.616-.517 34.382 34.382 0 01-.419-4.688c0-.561-.037-1.09-.08-1.645a.618.618 0 01.57-.662.618.618 0 01.662.57 37.5 37.5 0 01.086 1.694 32.732 32.732 0 00.382 4.54.616.616 0 01-.511.7z" fill="#cd9e69"/><path data-name="Path 72" d="M27.83 34.113a.616.616 0 01-.616-.567l-.493-6.258a.618.618 0 01.567-.665.618.618 0 01.665.567l.493 6.308a.616.616 0 01-.567.616z" fill="#cd9e69"/><path data-name="Path 73" d="M33.62 28.354h-.049l-6.283-.493a.62.62 0 01-.422-.213.622.622 0 01-.148-.45.617.617 0 01.662-.57l6.283.5a.615.615 0 01.567.659.616.616 0 01-.61.567z" fill="#cd9e69"/><path data-name="Path 74" d="M35.777 21.406H22.896a.616.616 0 01-.616-.616.616.616 0 01.616-.616h12.88a.616.616 0 01.616.616.616.616 0 01-.615.616z" fill="#cd9e69"/><path data-name="Path 75" d="M18.418 21.406H5.346a.616.616 0 01-.616-.616.616.616 0 01.616-.616h13.072a.616.616 0 01.616.616.616.616 0 01-.616.616z" fill="#cd9e69"/><path data-name="Path 76" d="M6.967 25.49a.616.616 0 01-.577-.4.617.617 0 01.177-.682l4.792-4.09a.615.615 0 01.869.068.615.615 0 01-.068.869l-4.792 4.09a.615.615 0 01-.4.148z" fill="#cd9e69"/><path data-name="Path 77" d="M11.76 21.405a.616.616 0 01-.363-.117 35.928 35.928 0 01-3.61-3.018c-.413-.382-.8-.745-1.232-1.109a.617.617 0 01.006-.81.616.616 0 01.807-.1c.431.37.838.745 1.232 1.14a33.067 33.067 0 003.5 2.926.615.615 0 01.225.69.616.616 0 01-.588.425z" fill="#cd9e69"/><path data-name="Path 78" d="M34.804 25.49a.615.615 0 01-.4-.148l-4.8-4.09a.617.617 0 01-.059-.872.617.617 0 01.872-.059l4.792 4.09a.617.617 0 01.169.679.616.616 0 01-.576.4z" fill="#cd9e69"/><path data-name="Path 79" d="M30.005 21.405a.616.616 0 01-.577-.4.617.617 0 01.177-.682l4.8-4.072a.611.611 0 01.46-.179.6.6 0 01.444.217.607.607 0 01.142.473.609.609 0 01-.251.425l-4.782 4.075a.615.615 0 01-.413.148z" fill="#cd9e69"/><path data-name="Path 80" d="M22.316 19.65a.612.612 0 01-.437-.179.613.613 0 01-.182-.437.613.613 0 01.182-.437l9-9a.618.618 0 01.875 0 .618.618 0 010 .875l-9 9a.612.612 0 01-.438.178z" fill="#cd9e69"/><path data-name="Path 81" d="M9.807 32.16a.612.612 0 01-.437-.179.613.613 0 01-.182-.437.613.613 0 01.182-.437l9.344-9.311a.615.615 0 01.836.032.615.615 0 01.032.836l-9.343 9.318a.612.612 0 01-.437.179z" fill="#cd9e69"/><path data-name="Path 82" d="M13.842 33.91h-.055a.616.616 0 01-.422-.214.619.619 0 01-.145-.451l.5-6.283a.618.618 0 01.665-.567.618.618 0 01.567.665l-.493 6.283a.616.616 0 01-.616.567z" fill="#cd9e69"/><path data-name="Path 83" d="M8.051 28.119a.616.616 0 01-.638-.594.616.616 0 01.594-.638 37.5 37.5 0 011.694-.086 32.725 32.725 0 004.54-.407.623.623 0 01.711.521.623.623 0 01-.521.711 34.383 34.383 0 01-4.688.419c-.561 0-1.09.037-1.645.08z" fill="#cd9e69"/><path data-name="Path 84" d="M27.239 14.723a.62.62 0 01-.444-.163.614.614 0 01-.2-.428.616.616 0 01.591-.644l6.308-.493a.618.618 0 01.665.567.618.618 0 01-.567.665l-6.283.493z" fill="#cd9e69"/><path data-name="Path 85" d="M27.239 14.722h-.049a.616.616 0 01-.422-.214.619.619 0 01-.145-.451l.5-6.283a.618.618 0 01.665-.567.618.618 0 01.567.665l-.494 6.283a.615.615 0 01-.622.567z" fill="#cd9e69"/></svg>