<svg data-name="Group 36" xmlns="http://www.w3.org/2000/svg" width="46.298" height="46.296"><path data-name="Path 109" d="M23.152 27.223a4.068 4.068 0 10-4.074-4.074 4.08 4.08 0 004.074 4.074z" fill="#eb4749"/><path data-name="Path 110" d="M29.481 23.148a6.329 6.329 0 11-12.191-2.376h-3.457v9.477a2.219 2.219 0 002.219 2.217h14.2a2.219 2.219 0 002.219-2.217v-9.477H29.02a6.326 6.326 0 01.461 2.376z" fill="#eb4749"/><path data-name="Path 111" d="M32.048 18.164v-3.923h-.512l-3.413.011.013 3.924z" fill="#eb4749"/><path data-name="Path 112" d="M23.15 0a23.148 23.148 0 1023.149 23.148A23.147 23.147 0 0023.15 0zm11.577 20.772v9.477a4.48 4.48 0 01-4.474 4.474H16.05a4.48 4.48 0 01-4.474-4.474v-14.2a4.478 4.478 0 014.474-4.472h14.2a4.479 4.479 0 014.474 4.472z" fill="#eb4749"/></svg>