<svg data-name="Component 4 – 21" xmlns="http://www.w3.org/2000/svg" width="268" height="268"><defs><clipPath id="a"><path data-name="Path 179" d="M134.006 199.378l-53.883-6.645 27.5 46.809-22.97 49.192 53.018-11.691 39.683 37.047 5.267-54.035 47.5-26.3-49.764-21.7-10.33-53.3z" transform="translate(-80.124 -158.758)" fill="none"/></clipPath></defs><g data-name="Group 52"><g data-name="Group 44" fill="#c69f55"><path data-name="Path 127" d="M83.088 192.344c-.27.16-.433-.143.057-.762l.741-.175z"/><path data-name="Path 128" d="M85.259 187.417c.726-.627 1.688-1.266 1.745-.5-.924.483-.878.783-1.918 1.27-.492.62-.633 1.232-.4 1.228-.266.158-.591 1.078-1.1 1.249a6.255 6.255 0 011.988-3.1c.07-.3-.2-.146-.317-.144"/><path data-name="Path 129" d="M101.691 120.97l.238.439a2.664 2.664 0 01-.238-.439"/><path data-name="Path 130" d="M113.608 101.173c-.346-.11-.477-.2-.481-.253.314.127.572.234.481.253"/><path data-name="Path 131" d="M121.593 102.874c-.171-.036-.317-.065-.471-.1a.958.958 0 01.471.1"/><path data-name="Path 132" d="M101.691 120.97l-.616-1.127c.125-.144.355.563.616 1.127"/><path data-name="Path 133" d="M92.231 179.314a3.364 3.364 0 01-.5.5l.409-.509a.4.4 0 00.091.011"/><path data-name="Path 134" d="M108.991 140.694l.141.361a1.919 1.919 0 01-.078.376z"/><path data-name="Path 135" d="M106.46 153.681c.188-.312.623-.173.859-.181a1.389 1.389 0 00-.694.492.449.449 0 01-.165-.31"/><path data-name="Path 136" d="M92.782 175.323l-.3.342c.078-.089.211-.238.3-.342"/><path data-name="Path 137" d="M104.68 129.979a.348.348 0 01-.2-.08c.053-.019.122.015.2.08"/><path data-name="Path 138" d="M100.778 188.584c.015.03 0 .051 0 .078-.1-.038-.129-.068 0-.078"/><path data-name="Path 139" d="M82.235 191.876l.26.008a.8.8 0 01.072.241z"/><path data-name="Path 140" d="M136.074 106.449l-.065-.011c-.363-.156-.152-.086.065.011"/><path data-name="Path 141" d="M205.239 139.364c-1.517-.5 1.855 1.781-.346.893.276-.027-1.42-1.718.346-.893"/><path data-name="Path 142" d="M92.417 178.936l.374-.547a4.433 4.433 0 01-.374.547"/><path data-name="Path 143" d="M204.893 140.256l-.226-.095.228.091"/><path data-name="Path 144" d="M162.673 94.193a1.042 1.042 0 01-.148.371c-.021-.042.006-.135.148-.371"/><path data-name="Path 145" d="M144.126 109.682l.3.025a.98.98 0 01-.3-.025"/><path data-name="Path 146" d="M173.325 86.235a2.96 2.96 0 01.7-.618.65.65 0 01-.076.131 1.487 1.487 0 00-.62.487"/><path data-name="Path 147" d="M184.938 76.676l-.3.359-.5.38z"/><path data-name="Path 148" d="M141.836 192.439a2 2 0 00-.7-.26c.376-.025-.787-1.695.7.26"/><path data-name="Path 149" d="M92.031 179.17a.526.526 0 00.386-.234l-.276.367c-.076 0-.133-.03-.11-.133"/><path data-name="Path 150" d="M175.955 88.544l1.654-1.446a34.85 34.85 0 01-1.654 1.446"/><path data-name="Path 151" d="M181.004 181.147l-.177.475a1.262 1.262 0 01.177-.475"/><path data-name="Path 152" d="M182.686 83.006a5.207 5.207 0 01.764-1.019.959.959 0 01.268-.076z"/></g><path data-name="Path 153" d="M141.133 192.177h-.006z" fill="#c69f55"/><g data-name="Group 45" fill="#c69f55"><path data-name="Path 154" d="M156.869 217.74c.352.551.553.669.68.686-.177-.251-.386-.544-.658-.931v-.093a.638.638 0 00-.017.338m7.742 4.98l-1.11-1.393c-.207-.021-.234.2.025.519-.057-.238.608.471 1.085.874m-2.522-3.241l.006-.006-.6-.81.6.817m-34.49-32.94c2.089-.139 1.015.5 1.479.808 2.5.013 1.127-.494 1.958-.84 1.568.059 2.79.515 3.957.422.133-.1.532-.16.07-.253a19.329 19.329 0 002.14.063l2.245 3.007a11.169 11.169 0 011.4 2.321.565.565 0 00.266.112.768.768 0 00-.8.253c.57.745.785 1.6 1.3 1.642a1.355 1.355 0 01-.344-.861l.475.876c.973.365-.677-1.173-.363-1.42a36.521 36.521 0 003.089 4.721c.606-.084-1.975-2.817-.4-1.562l-1.559-1.667c1.728.855-.895-1.053.791-.346 1.963 2.264 1.846 2.8 3.8 5.06.181.711-.479.093-.3.8 2.193 3.67 3.1 1.813 4.467 4.7a3.9 3.9 0 001.528 3.045l.006-.964c1.83 2.245.34 1.832 2.524 3.976-.146-.57-1.245-1.916-.918-1.614 1.581 1.258.587 1.3 1.517 2.494l.61-.08c1.832 2.484 3.621 5.4 5.647 8.148.006-.247-.222-.81.4-.281 1.222 1.779 2.648 3.581 4.121 5.324 1.948 2.351 1.815 1.918 2.051 1.965.04.163.091.338.152.528a.949.949 0 00.188.291 1.152 1.152 0 00-.148-.61c-.023-.6.179.464.355.509.12-.34-.091-.694-.228-.715.116-.061.243-.152.437-.54.323-.891.654-1.861.96-2.842a29.419 29.419 0 001.264-5.491l-.279.534c.409-2.317 1.572-2.325 1.705-4.537l-.184.384c1.087-4.976 2.906-10.313 3.212-14.244.825-.549.981-4.946 1.954-5.033a39.207 39.207 0 01.652-6.2c.234-1.068.964-1.433 1.4-2.716l-.456-.152.947-1.65-.31-1.089.437-1.194c-.1.5-.059 1.093.093 1.053a12.126 12.126 0 00.593-2.41l.078-.591c.046-.3.093-.587.133-.857a29.66 29.66 0 00.19-1.494c.374-.213.582-.363.563-.416l1.023-.317.5-.156.3-.082 1.133-.3 2.271-.61c-.165-.146-.924.059-1.549.156 2.517-.395.255-.631 2.56-.992-.251.207.255.211.338.285a24.358 24.358 0 015.265-2.1l-.46-.186c3.235-1.266 6.934-2.353 10.6-3.691-1.262.625-.764 1.053.329.715l.255-.633c.8.042-1.055.587.5.431 1.348-.553.722-.878-.12-.747l1.724-.439c.046-.179-.371-.112-.54-.255.791.046 2.7-1.524 3.87-1.367l.042-.177c3.661-1.336 5.381-1.775 8.373-2.836.209.392 1.342-.125 2.353-.114 2.144-.928 4.459-2.138 7.114-3.062.475-.116.812-.186.8-.129a.241.241 0 01.133.106c.059.084.036.2.319.238-.1-.39.728-.65-.042-.675.357-.1.618-.171.836-.23a6.196 6.196 0 01-.416-.395c-.093-.095-.192-.194-.3-.306l-.217-.211a1.535 1.535 0 00-.175-.154l-.4-.3c.23.049.5.152.616.16.093-.006.158-.025.135-.122-.517-.407-1.547-.787-1.534-.553l.15.146c-3.714-3.081-9.943-4.965-12.71-7.719l.158.15-3.1-2.494c-1.57-.92.76.84-.509.323-3.237-2.855-5.733-3.545-8.456-5.809-2.927-.469-8.089-5.261-11.587-6.6l.327-.12c-.652-.739-1.051-.483-1.676-.806.2-.129 1 .344.587-.1q-.864-.592-1.739-1.186l-2.577-1.671-.141-3.478-.152-2.56q-.19-2.567-.384-5.155c-.281-3.444-.587-6.894-.808-10.294-.177-3.009 1.376-1.758.582-5.531l-.477 1.1c.407-6.1-.452-12.427-.133-18.395-.108.359-.262.376-.238.956-.418-1.245-.179-4.647.125-4.678-.068-.926-.283-.2-.458-.77a4.329 4.329 0 01-.061-1.036 1.748 1.748 0 01.019-.232l.032-.044.072-.112c.095-.158.167-.435-.015-.3a.945.945 0 00-.143.228c.143-.247 0-.384.194-.827a.778.778 0 01.07-.156 1.042 1.042 0 01.082-.16l-.006-.006a1.756 1.756 0 01-.656.544c-.279.175-.211.076-1.038.922-1.2.365-2.807 2.608-3.524 2.317.57.443-2.665 2.927-3.967 3.568.5-.135-.808.952-.192.827-1.251 1.017-2.475 1.855-2.488 1.395-1.758 2.539-5.041 3.269-5.647 5.168a330.944 330.944 0 00-10.956 7.977c.568.445 3.722-2.971 4.05-2.283-3.341 2.372-5.544 3.4-8.565 6.109-.749.741.654-.144 1-.274-1.31.931-2.526 1.912-3.7 2.883l-1.745 1.439-2.4 1.929c-.629-.2-1.256-.4-1.876-.6-.538-.179-.785-.285-1.184-.443-.008.068.348.245.69.4-.682-.22-1.629-.361-1.462-.644l.646.274c1.228-.131-2.465-1.716-2.52-1.986.914 1.216-3.514-.77-1.977.876-.437-.188-.962-.5-.8-.673-.69-.133-.937-.074-.323.357-2.416-.876-1.448-.952-3.682-1.585-.036.152.4.338.58.578a12.155 12.155 0 00-4.024-1.646c.087.122-.165.175.4.336-3.229-.975-5.3-2.359-8.939-3.1.863.948-1.27-.135-1.621.371l-1.867-.719.844-.053c-1.678-.471-3.041-1.3-4.533-1.534l1.178.589-3.106-1.007 1.836.3c-1.612-.774.386-.656-1.889-1.14a19.812 19.812 0 00-2.646-.4h.006a8.569 8.569 0 00-2.855-1.066c-.374.087.082.694-.162.753-.682-.7-3.885-1.258-4.778-2.053.312.217.247.515.116.542l-.578-.576c-.81-.1-.941-.074-.882.2-2.355-.6.945-.5-1.912-.988.207.093.087.12.523.308a20.746 20.746 0 01-2.425-.692c-.694-.238-1.46-.519-2.19-.743a14.528 14.528 0 00.606 1.41c.979.888-.314-1.2.641-.112.118.369.2.743.308 1.2l.175.743.418 1.37a52.768 52.768 0 001.938 5.449l-.312-.62c-.582.781 1.391 2.423 1.714 4.313-.112-.452.207-.728.167-.58a82.779 82.779 0 012.876 8.591l.023-.523c.724 1.325 1.545 3.632 2.226 5.1-.023.523.348 1.374-.146.962 2.95 4.2 2.876 9.093 5.432 12.845-.192-.494-.289-1.243-.133-.85l1.2 3.581c-.445-.148-.384-.382-.935-1.015a7.407 7.407 0 00.551 2.442c-.4-1.665.544-.2 1 .411-.148-.074-.169.2-.3.186 1.317 1.6-.553.574.831 2.918l.125-.2c.16.635.312 1.249.473 1.884a8.291 8.291 0 00-.734 1.011c.076.631.831-.886 1.264-.914a10.565 10.565 0 01-.907 1.116c-.3.327-.555.549-.827.825a4.423 4.423 0 00-1.215 1.76c.458-.473.981-1.243 1.439-1.714a7.643 7.643 0 01-1.2 2.562l.053-.1-1.26 2.262.257-.618c-1.967.973-2.336 3.108-4.364 4.839 1.956-1.692.553-.125 1.053-.019-.26.618-.7 1.528-.426 1.365-1 .793-.886 1.849-2.306 2.956.082.15-.713 1.087-.245 1.072-.981 1.243-.011-.456-.243-.454-1.792 1.726-2.678 5.094-5.227 7.6-1.933 2.338-2.669 2.513-4.448 4.693-.327.92.893-.333.893-.333a14.252 14.252 0 01-2.292 3.412c.272-.167.2.144.093.6-.677.933-.891.329-1.555 1.716a4.061 4.061 0 001.152-.614c-.878 1.049-1.863 2-2.764 3.091.011.458.808-.479 1.228-.793-.983 1.245-2.49 3.262-3.11 3.433l.443-.924c-.34.466.133.447.433.137 1.032-.939.975-1.7.891-1.851l-.642.777c-.162-1.353 2.37-3.256 3.457-4.957l-1.009.333 1.6-1.414c.106-.458-.025-.912-.663-.139.542-1.378.907-.933 1.306-2.163.03-.143-.032-.11-.122-.019l.95-1.064c-.268.154-.247-.452-.656.321 1.11-2.311 2.693-3.117 2.819-4.185l-.152.154c2.15-2.794.585-.015 2.524-1.891l.021-2.129.589-.021c.188-.31.561-.924.329-.922 1.026-.937.042.308.736-.171.616-1.69 2.864-3.879 2.454-4.63.65-.319-.7 1.54.549.135-.378-.9 1.323-1.709 1.906-3.241-.623.171-1.285 1.549-.7.015 1.129-.4 1.61-2.663 2.475-3.7.506.264 1.834-2.294 3.254-4.062-.084 0 .162-.464.559-1.156l.686-1.169c.173-.3.355-.627.532-.943l-.793-1.583-.065.091c.384-.587-.511-2.566-.977-4.079-.3.184-.319.5-.148 1.348l-.54-1.382a4.469 4.469 0 00-.327-1.779l-.262.5c-.7-1.847-.985-3.887-2.182-6.147.321-.279 1.775 1.475 1.04-1.125-.238-.013-.618.03-.443.715a4.012 4.012 0 00-.388-1.228l.055 1.133c-.572-1.019.061-.675-.31-1.524-.279.129-.454-.557-.633-.344.059.23.414.7.43 1.078a8.846 8.846 0 00-1.433-2.361c.2.021.386-.152.143-.878-.7-1.846-.591-.494-1.161-1.509.025-.521-.644-1.614-.226-1.813-.213-.538-.454-.559-.65-.722-.186-1.026-1.692-4.465-.815-3.571l.125.232-.042-.165v.008-.008c-.8-3.286-2.788-6.381-3.82-9.549l-.141.061a58.062 58.062 0 01-1.728-5.59c-.215-.544-.768-1.186-.846-.886a13.177 13.177 0 00-1.386-3.621c.308 1.517-.414-.4.388 1.526-.422-.893-.732-1.42-.983-1.99a16.641 16.641 0 01-.95-3.045c-.061.388-.4-.137-.81-1.015a21.785 21.785 0 01-1.025-2.608l1.171 2.209c-.287-.829-.591-1.6-.914-2.389l1.422.374-1.448-.956a33.239 33.239 0 014.486 1.169c.751.245 1.475.5 2.157.745l.49.181.3.129.6.255a10.422 10.422 0 004.666 1.184c.924.644-2.176-.359-1.376.312a38 38 0 004.425.422c2.522.424 2.07 1.382 4.68 1.927-.378.084-.823.471 1.04 1.186 1.8.447 2.408-.116 1.321-.582-.424-.137-.646-.139-.646-.074-.557-.232-1.291-.525-.53-.515l.179.245c.937.074 3.387.8 2.9.34 1.3.557.492.458-.534.262 2.363.4 3.579 1.019 5.985 1.524-.4-.011-.806.1-.433.2 3.518.772 1.424.774 3.744 1.526 1.408.11-.291-.785 2 .118 1.492.23.441-.384-.091-.692 2.049.958 4.079.926 5.322 1.215l-1.089-.468a13.9 13.9 0 001.77.6l-.747.171c.682.127 1.245.287 1.275.137.616.428-.694.441.572 1.15.939.072 2.642.966 3.083.582-2.832-.639.443-.386-1.891-1.137a8.222 8.222 0 001.678.473c.114-.025-.068-.125-.241-.2 2.785.344 1.072.886 3.836 1.667-.274-.367.785-.321 1.22-.135-1.114-.314-.66.291.3.789a6.158 6.158 0 011.745.5l.494.245a3.149 3.149 0 00.456.173l-.15-.017-.272-.053-.542-.1a1.7 1.7 0 00.711.437c.243.108.509.2.865.331l.217-.146c-.011-.116-.137-.063-.249 0-.171-.08-.323-.127-.186-.141a1.208 1.208 0 00.186.137 1.366 1.366 0 00.53-.393l.739-.831a7.971 7.971 0 011.96-1.764c.593-.73-.262-.458.283-1.07 1.948-1.139 1.623-1.827 3.619-3.087-.285.717-.433.722 1.07-.046l-3.138 2.245 2.252-1.152c-.895.741-2.043 1.376-2.541 1.868 1.1-.513.95-.509.717.084.874-1.441 2.64-1.751 3.82-3.212l-.627-.675c1.872-2.072 4.092-2.754 6.715-5.214l-.789.857c.606-.023 1.745-1.367 2.735-1.992-.279-.169.211-.717.473-1.18.1.215 2.015-1.684 2.657-1.418l.981-1.329c2.131-1.971 3.111-1.424 5.2-3.275-.861.274-.023-.7-1.614.3.715-.593 1.325-1.167 1.473-1.013.3-.494 2.254-1.317 2.729-2.087a2.539 2.539 0 001.481-.658c.049-.122-.1-.116-.1-.116.1.116 1.395-.878.905-.036a17.617 17.617 0 013.891-3.754c.766-.608 1.526-1.2 2.18-1.789a21.24 21.24 0 002.34-2.353l3.17-2.437c.03 1.773.055 3.435.078 4.847.084-.228.148-.12.1-.589a5.778 5.778 0 01-.192 2.973 3.582 3.582 0 00-.188 2.368c.547 1.458.215-1.545.435-.631 1.028.365-.017 3.492.641 5.419l.044-.475c.395 1.475-.26 3.642-.1 6.069 0 0 .087-.122.152-.021a38.544 38.544 0 00-.582 7.173c.371-.741.173-1.068.591-.639-.021 1.051-.656-.285-.7 1.811.238.673.481 2.174.918 2.359l-.044-1.973c.589.992.067 2.553.2 3.59l.238-.141c.025 3.026-.585 3.089-.428 6.337l-.2-.329c-.544 1.8.393 1.475 0 3.262l.633.515c-.108 1.178-.454 4.123-.5 6.229a37.747 37.747 0 00.781-5.2 19.7 19.7 0 01-.19 4.564 5.082 5.082 0 00.061-1.524 17.689 17.689 0 00-.515 5.636c.384-.148.572.445.686 1.367.055.46.093 1 .127 1.578l.044.667.04.441c.143.074.285.143.42.211l.2.084.363.175a3.788 3.788 0 001.228.382c3.214 2.577 6.949 4.214 10.933 6.841-1.925-.129 1.161.772.4 1.418a5.3 5.3 0 001.386.865l3.146 1.334c.821.194-.779-.747-.578-.872 2.091 1.247 1.078.207 2.572.861-.462.11.449.867 1.69 1.5l-1.884-.682c2.594 2.258 2.91.907 5.529 3.176l-.753-.836c1.389 1.1 5.472 3.486 6.514 5.058.321.076.808.076.192-.4 1.8 1.083 3.665 2.511 5.453 3.843.895.665 1.768 1.3 2.608 1.863a31.616 31.616 0 002.853 1.667l-.281-.456a15.445 15.445 0 003.159 2.258c.078-.065-.122-.354.437-.013.386.317 1.477 1.243 2.629 2.03a13.174 13.174 0 00-1.365.521l1.971-.437a68.565 68.565 0 01-8.52 2.858 43.5 43.5 0 00-4.537 1.038c.245.642-2.712 1.954-4.187 2.608l.084.072c-4.457 1.711-7.816 2.237-12.064 3.495-2.325 1.64-8.631 3.471-12.634 5.371.591-.346-.285-.464-1.047-.262-.924.485-2.851.532-2.482 1.066l.342-.137c-.521.846-2.577 1.42-4.134 2l-.538-.679a13.277 13.277 0 01-2.3 1.268 24.01 24.01 0 01-1.31.534 4.2 4.2 0 01-.492.167l-.137.355-.361 1.154c-.236.785-.466 1.543-.677 2.241a8.891 8.891 0 00-.5 3.429c-.462.962-.787 2.22-1.247 3.176l.441.055c-.62 2.84-.931 4.259-1.935 7.709l.49-.629c-.481 1.967-1.876 2.155-2.37 3.957l.5.709c-.9 3.419-1.237 7.025-2.693 10.256.108-.032.319-.084.49-.631-.4 1.614-1.186 6.339-1.91 5.527.559.188-.861 3.543-1.591 5.326l.5-.179a10.068 10.068 0 00-1.817 3.571c-.08.53.219.538.289-.175a5.829 5.829 0 01-.593 1.925 8.288 8.288 0 00-.745 2.511q.237-.354.494-.793c-.663 2.684-.724 2.332-1.23 2.994a4.445 4.445 0 00-.154.433 15.191 15.191 0 00-1.637-1.912c-.54-.528-1.053-.937-1.232-.88a6.926 6.926 0 00-.6-1.344 7.589 7.589 0 00-1.053-1.5c-.207-.023-.038.344.049.525-2.114-2.226-2.4-3.891-4.028-5.286a.428.428 0 01-.422-.12c1.5 1.908 2.724 3.433 2.636 3.271-.317.247-1.578-1.256-1.053.314a24.656 24.656 0 00-3.195-5.343.938.938 0 00-.266-.114l.087.184a4.382 4.382 0 01-.692-.992 14.468 14.468 0 01-1.07-1.173c-.4.025-1.524-1.663-2.14-2.425.4-.2-.447-1.171.576-.449-.12-.1.072.179.458.7a3.363 3.363 0 01.222.357l-.011-.076c.388.511.895 1.175 1.473 1.933a4.967 4.967 0 00-1.507-2.2c-.087-.57-.2-1.184-.283-1.513-1.306-.677-3.153-2.507-3.672-2.56-1.644-2.5-4.2-5.643-4.706-7.628-.439-.734-.787-.625-1.085-.8a9.051 9.051 0 01.675 1.171c-.878-1.467-3.03-4.014-2.826-4.687-1.521-1.528.323 1.272-1.414-1.1l.108.42a21.73 21.73 0 01-4.022-5.318c-.53-.907-1.047-1.825-1.635-2.748a19.276 19.276 0 00-1.834-2.488c-.291.04-.589.093-.869.16-.346.072-.821.165-1.243.272.439-.1.658-.146.743-.249-7.266.96-15.065.418-22.214 1.676a7.59 7.59 0 01-3.547-.268l-.414.5-2.169-.414c-3.051-.215-5.174 1.469-9.053.95l.477-.348c-1.374.144-4.375.076-4.121.426a1.16 1.16 0 00-1-.1l-.027.249-3.406-.219c-2.612.336.468.952-3.355 1.23-1.429-.008-4.094-.473-3.568-.669.574-.046 1.456-.241 1.486-.49l-1.308-.051c-.281-.711-1.325-1.393 1.838-2.091l2.252.31.694-.395-1.874.091a3.854 3.854 0 012.5.013 1.614 1.614 0 01.91-.443l2.226.559c.247-.3-1.015-.5.443-.747 1.042.259-.943.694.762.8 1.045-.395.72-.644 1.986-.437.162-.2-.108-.3-.608-.352 1.125.156 2.948-.084 3.545.268 1.085-.475 3.76-.12 3.611-.8a11.577 11.577 0 003.013.386c-1.914-.709 3.822-.279 3.275-1.129 1.427.656 5.01.027 7.481.289a1.26 1.26 0 00-.631-.1 15.206 15.206 0 002.636-.584c.215.6 2.368.61 3.545.918 1.652-.69-1.068-.654-.572-1.253-.055.5 2.963.319 2.414.764 1.268-.441 1.1-.243 1.735-.789.272.749 1.209.057 2.309.46 1.846-.487.439-.743 2.5-.633.96-.293-.88-.454-.88-.454"/><path data-name="Path 155" d="M156.603 216.466a2.578 2.578 0 00-.139-.23c.11.084.211.165.317.245l.034.266c-.072-.1-.146-.192-.211-.281"/><path data-name="Path 156" d="M101.969 121.484l-.04-.078a.652.652 0 00.124.148.6.6 0 00-.084-.07"/></g><path data-name="Path 157" d="M179.567 185.879l.184-.323-.1-.034z" fill="#c69f55"/><g data-name="Group 46" fill="#c69f55"><path data-name="Path 158" d="M111.643 141.999a.644.644 0 01.213.236c-.032 0-.116-.108-.213-.236"/><path data-name="Path 159" d="M110.599 151.431l-.644 1.232c.262-.544.471-.931.644-1.232"/><path data-name="Path 160" d="M106.573 157.781a.465.465 0 01-.238.017l.006-.015z"/><path data-name="Path 161" d="M142.942 112.394l.289.1c.538.2.629.238.477.188s-.6-.207-.766-.291"/><path data-name="Path 162" d="M109.045 101.598c.338.182.675.359 1.042.515-.62-.143-1.1-.27-1.042-.515"/><path data-name="Path 163" d="M175.772 88.702h-.008c.065-.055.125-.1.19-.156z"/><path data-name="Path 164" d="M111.673 102.561a6.173 6.173 0 01-1.591-.449 9.594 9.594 0 011.591.449"/><path data-name="Path 165" d="M88.514 184.891l-.188.31c-.021-.021-.051-.017-.082 0z"/><path data-name="Path 166" d="M88.241 185.197l-.268.3c.1-.152.2-.283.268-.3"/><path data-name="Path 167" d="M87.413 186.142l.566-.639c-.162.243-.355.551-.566.639"/><path data-name="Path 168" d="M93.913 176.532l.2-.006a.208.208 0 01-.2.006"/><path data-name="Path 169" d="M95.643 174.051a16.494 16.494 0 01-1.376 2.467l-.158.008c.46-.26.929-2.057 1.534-2.475"/><path data-name="Path 170" d="M101.074 162.493l-1.313 2.171c.108-.462.245-1.072-.433-.139 1.367-2.931-.055.758 1.745-2.032"/><path data-name="Path 171" d="M105.265 155.84c-.827 1.085-.194-.15-.314-.146.61-.629.76-.779.314.146"/><path data-name="Path 172" d="M95.164 105.116l-.321.274c-.331-1 .139-.068.321-.274"/><path data-name="Path 173" d="M95.472 98.118a.491.491 0 00-.219.194c-.247-.2-.519-.4-.81-.612z"/></g><path data-name="Path 174" d="M101.04 96.76l1.218.443-1.644-.625z" fill="#c69f55"/><g data-name="Group 47" fill="#c69f55"><path data-name="Path 175" d="M181.859 78.712l.065.58c-.6.384-1.07.051-.065-.58"/><path data-name="Path 176" d="M189.24 112.695a3.654 3.654 0 01.243 2.313c-.065-.924-.289-1.84-.243-2.313"/></g><path data-name="Path 177" d="M187.323 179.407l-.677.274 1.511-.4z" fill="#c69f55"/><g data-name="Group 49"><g data-name="Group 48" clip-path="url(#a)" transform="translate(84.787 71.432)"><path data-name="Path 178" d="M124.878 28.559l-1.462.54 6.945 18.876-25.53-30.987-1.247.937 16.458 24.158L94.033 6.245l-1.281.888 50.067 75.38A510.731 510.731 0 0187.776 4.369l-1.363.758a711.991 711.991 0 0046.688 74.846A390.429 390.429 0 0184.796 9.689q-1.906-3.586-3.769-7.2l-1.386.711q1.855 3.631 3.779 7.221a642.431 642.431 0 0042.967 69.669A482.148 482.148 0 0175.165 1.117l-1.388.711a605.484 605.484 0 0035.321 60.332 606.684 606.684 0 01-32.947-51.148l-1.361.764a900.3 900.3 0 0050.063 80.811 382.274 382.274 0 01-29.978-37.765q-12.81-20.024-24.624-40.544l-1.367.751a383.985 383.985 0 0024.7 40.66q15.048 23.519 31.333 46.153C101.363 77.604 84.7 47.573 68.544 18.452l-1.376.73a670.619 670.619 0 0050.608 83.776A431.738 431.738 0 0188.25 65.995L61.125 22.744l-1.344.789a433.7 433.7 0 0027.174 43.329l29.794 47.51a476.638 476.638 0 01-56.8-77.361q-5.433-9.48-10.648-19.049l-1.376.739q5.122 9.676 10.671 19.1a1057.773 1057.773 0 0049.12 77.737c-24.006-28.583-44.4-60.355-64.206-91.2l-1.317.836 58.956 94.081a662.467 662.467 0 01-49.493-67.878q-7.109-11.291-13.843-22.769l-1.346.785q6.695 11.535 13.873 22.818a864.35 864.35 0 0046.334 66.464 626.785 626.785 0 01-64.383-88.077l-1.346.785a715.789 715.789 0 0067.251 99.39C67.408 96.878 42.935 57.459 19.17 19.173l-1.37.743c20.336 43.161 49.719 81.322 79.182 117.985A633.713 633.713 0 0115.465 33.453l-1.359.762c20.632 41.131 49.118 77.794 77.916 112.969A626.853 626.853 0 017.547 31.913l-1.357.768a751.946 751.946 0 0072.734 106.162C48.591 104.716 23.648 65.85-.609 28.054l-1.336.8a802.778 802.778 0 0074.276 110.459A606.343 606.343 0 01-3.534 34.025l-1.361.76a886.8 886.8 0 0055.354 88.32A734.849 734.849 0 012.78 54.048l-1.336.8a977.133 977.133 0 0041.217 64.01L9.889 77.983l-.941.715-2.347-3.182-1.281.888 32.8 50.568-33.5-45.224-1.281.886 23.641 36.619L4.901 89.4l-1.294.865 22.59 37.393L2.634 94.231l-1.3.857 25.021 40.776-24.766-31-1.27.9 3.429 5.542-1.175.793 20.488 30.4 1.308-.846-15.88-25.654 24.512 30.679 1.272-.893-18.8-30.645 22.185 31.472 1.3-.853-25.357-41.976 26.756 36.2 1.283-.886-23.856-36.95 34 45.887 1.281-.888-32.447-50.015 36.727 49.738 1.26-.918-31.862-44.454 34.975 43.619 1.23-.956q-13.484-17.944-26.209-36.619 16.062 21.89 33.672 42.49l1.209-.981a884.728 884.728 0 01-48.59-69.76 607.727 607.727 0 0065.471 79.57l1.152-1.051a800.859 800.859 0 01-71.706-98.217c23.371 35.522 48.457 70.621 79.13 100.576l1.131-1.072q-19.457-22.011-37.167-45.545a628.594 628.594 0 0044.3 49.806l1.156-1.045c-29.109-35.266-59.089-71.59-82.033-112.035a635.168 635.168 0 0082.24 99.666l1.152-1.047c-29.016-35.933-58.914-72.961-80.987-114.4 24.766 39.639 51.028 79.59 84.962 112.659l1.135-1.064a714.187 714.187 0 01-59.125-79.569 628.231 628.231 0 0057.179 70.281l1.173-1.026q-6.892-8.478-13.583-17.146 4.162 5.042 8.422 9.994l1.254-.922-31.251-49.872a514.7 514.7 0 0039.5 50.2l1.211-.977Q98.994 100.88 81.754 73.397a478.077 478.077 0 0039.588 48.3l1.23-.945-24.124-38.47q12.8 16.374 27.146 31.489l1.192-1q-13.585-18.384-25.931-37.75a220.575 220.575 0 0029.609 34.445l1.161-1.032q-11.5-15.675-22.457-31.875 10.62 13.247 22.4 25.544l1.2-.992a896.282 896.282 0 01-32.783-49.234q16.53 24.167 35.292 46.628l1.213-.979q-12.459-16.007-23.85-32.875 13.386 18.343 28.463 35.38l1.2-.992Q125.831 77.603 111.16 54.73a391.737 391.737 0 0031.126 37.815l1.194-1a708.515 708.515 0 01-34.006-49.81 512.074 512.074 0 0039.9 50.639l1.23-.952L114.861 37.6l34.677 47.788 1.277-.9-36.319-53.319 20.5 24.878z" fill="#be913f"/></g></g><path data-name="Rectangle 11" fill="#ededed" d="M116.622 214.954l12.214-16.762 1.26.918-12.213 16.763z"/><path data-name="Rectangle 12" fill="#ededed" d="M130.013 219.906l3.513-17.303 1.529.31-3.513 17.303z"/><path data-name="Rectangle 13" fill="#ededed" d="M137.28 204.553l1.494-.454 6.516 21.46-1.493.453z"/><path data-name="Rectangle 14" fill="#ededed" d="M192.273 116.512l6.166-13.395 1.416.652-6.166 13.395z"/><path data-name="Rectangle 15" fill="#ededed" d="M195.868 119.222l11.311-12.473 1.156 1.049-11.311 12.472z"/><path data-name="Rectangle 16" fill="#ededed" d="M198.98 124.176l.026-1.56 18.885.311-.026 1.561z"/><path data-name="Rectangle 17" fill="#ededed" d="M72.799 146.854l.324-1.524 20.659 4.387-.324 1.524z"/><path data-name="Rectangle 18" fill="#ededed" d="M76.994 157.331l13.918-3.548.385 1.512-13.918 3.548z"/><path data-name="Rectangle 19" fill="#ededed" d="M77.33 168.965l14.776-9.557.846 1.308-14.776 9.557z"/><path data-name="Path 180" d="M222.965 38.429l-4.841-5.25-1.222 7.036-6.489 2.984 6.314 3.336.831 7.09 5.124-4.972 7 1.4-3.144-6.405 3.5-6.225z" fill="#b18637"/><path data-name="Path 181" d="M232.344 74.943l-4.216-.171 2.429 3.45-1.465 3.957 4.031-1.245 3.311 2.617.063-4.218 3.511-2.34-3.995-1.363-1.14-4.062z" fill="#b18637"/><path data-name="Path 182" d="M191.164 52.399l-2.3-.093 1.327 1.884-.8 2.163 2.2-.679 1.808 1.429.034-2.3 1.918-1.279-2.18-.745-.625-2.22z" fill="#b18637"/><path data-name="Path 183" d="M161.597 73.151l-2.3-.093 1.327 1.884-.8 2.163 2.2-.679 1.808 1.429.03-2.307 1.918-1.277-2.18-.745-.625-2.22z" fill="#b18637"/><path data-name="Path 184" d="M243.546 52.384l-2.3-.093 1.327 1.884-.8 2.163 2.2-.679 1.808 1.427.036-2.3 1.916-1.281-2.182-.745-.623-2.218z" fill="#b18637"/><path data-name="Path 185" d="M166.566 25.061l-4.176.593 3.011 2.954-.726 4.157 3.739-1.952 3.729 1.975-.7-4.161 3.03-2.935-4.172-.618-1.855-3.79z" fill="#b18637"/><g data-name="Group 50" fill="#b18637"><path data-name="Path 186" d="M200.299 28.284a19.406 19.406 0 011.021-2.743 28.222 28.222 0 011.676-2.617q1.852-2.573 3.467-5.3c1.021-1.73 1.912-3.524 2.809-5.322.456-.916.905-1.836 1.327-2.769.5-1.114.842-2.083 1.969-2.686a1.615 1.615 0 012.117.842 4.463 4.463 0 01-.494 3.326c-.418 1-.848 2-1.323 2.978a63.8 63.8 0 01-3.267 5.782q-1.678 2.684-3.589 5.208a17.13 17.13 0 01-2.218 2.439 13.683 13.683 0 01-2.735 1.612c-.464.255-.926-.314-.76-.747"/><path data-name="Path 187" d="M190.538 25.475a66.26 66.26 0 01.222-5.25c.148-1.749.416-3.459.7-5.189a44.124 44.124 0 011.359-5.058l1.439-4.974c.27-.937 1.709-.49 1.616.424a89.211 89.211 0 01-1.2 10.408c-.382 1.714-.787 3.4-1.3 5.075s-1.087 3.239-1.73 4.854c-.255.646-1.106.323-1.1-.289"/><path data-name="Path 188" d="M181.033 26.26c-.869-1.838-1.743-3.651-2.534-5.525-.77-1.825-1.283-3.752-1.937-5.622s-1.336-3.746-1.994-5.622c-.677-1.925-1.811-3.923-1.777-5.98a1.618 1.618 0 012.572-1.085c1.557 1.281 2.3 3.57 3.134 5.371a57.357 57.357 0 012.252 5.721 38.078 38.078 0 011.737 6.084 41.19 41.19 0 01.449 6.118 1 1 0 01-1.9.54"/></g><path data-name="Path 189" d="M60.606 230.656l6.514-2.929-6.286-3.387-.774-7.1-5.164 4.932-6.991-1.458 3.1 6.436-3.547 6.2 7.078-.956 4.8 5.288z" fill="#b18637"/><path data-name="Path 190" d="M92.898 234.528l-4.018-1.281 1.424 3.967-2.461 3.427 4.216-.129 2.5 3.4 1.18-4.052 4.005-1.323-3.488-2.374-.023-4.218z" fill="#b18637"/><path data-name="Path 191" d="M18.386 187.142l2.762-3.189-4.212-.253-2.178-3.613-1.543 3.927-4.109.956 3.258 2.68-.361 4.2 3.556-2.271 3.887 1.642z" fill="#b18637"/><g data-name="Group 51" fill="#b18637"><path data-name="Path 192" d="M38.706 218.688c-.276 4.271-3.431 7.833-6.681 10.34a30.663 30.663 0 01-5.75 3.45 27.3 27.3 0 01-6.369 2.4.655.655 0 01-.492-1.194c1.646-1.108 3.6-1.84 5.347-2.783a54.452 54.452 0 005.335-3.235 19.992 19.992 0 004.272-3.925 20.091 20.091 0 002.756-5.265c.306-.781 1.648-.779 1.583.213"/><path data-name="Path 193" d="M27.866 215.338c-2.492 2.948-6.147 4.558-9.709 5.828a26.093 26.093 0 01-5.44 1.469 36.3 36.3 0 01-5.765.2c-.954-.036-1.245-1.557-.219-1.737a49.063 49.063 0 005.434-1.336c1.688-.492 3.387-.888 5.043-1.5 3.374-1.234 6.43-3.159 9.77-4.469.924-.363 1.405.922.886 1.536"/><path data-name="Path 194" d="M24.314 208.239c-1.76.319-3.528.572-5.305.785a34.208 34.208 0 01-5.383.118 37.2 37.2 0 01-10.661-2.086c-1.23-.424-1.15-2.541.325-2.412 3.452.3 6.911.534 10.355.912 1.688.186 3.387.264 5.071.479 1.787.228 3.581.376 5.379.471.948.049 1.249 1.547.217 1.735"/></g></g></svg>