<svg xmlns="http://www.w3.org/2000/svg" width="46.298" height="46.298"><path data-name="Path 107" d="M23.149 0a23.149 23.149 0 1023.149 23.149A23.149 23.149 0 0023.149 0zm9.24 19.548c.01.2.014.408.014.615a13.531 13.531 0 01-20.828 11.4 9.634 9.634 0 007.044-1.971 4.757 4.757 0 01-4.444-3.3 4.709 4.709 0 00.894.084 4.655 4.655 0 001.255-.167 4.758 4.758 0 01-3.818-4.666v-.059a4.757 4.757 0 002.156.595 4.766 4.766 0 01-1.473-6.353 13.505 13.505 0 009.806 4.971 4.648 4.648 0 01-.122-1.083 4.758 4.758 0 018.228-3.254 9.475 9.475 0 003.022-1.154 4.761 4.761 0 01-2.091 2.632 9.544 9.544 0 002.732-.75 9.633 9.633 0 01-2.375 2.46z" fill="#4cc3ec"/></svg>