<svg width="270" height="82" id="Isolation_Mode" data-name="Isolation Mode" xmlns="http://www.w3.org/2000/svg" viewBox="0 0 233.47 70.67"><defs><style>.cls-1{fill:#fff;}.cls-2{fill:none;}</style></defs><title>Logo</title><path class="cls-1" d="M638.6,205.18h.93l-1.06,1.45h-.72ZM635.83,208H635v-.76h4.92c.53,0,.75.22.75.75v.86h-.81v-.57a.24.24,0,0,0-.27-.27h-2.94v3.13h3.23v.76h-3.23v2.92a.24.24,0,0,0,.27.27h3a.24.24,0,0,0,.27-.27v-.57h.8v.86c0,.53-.22.75-.75.75h-3.72c-.52,0-.75-.22-.75-.75Z" transform="translate(-527.53 -188.14)"/><path class="cls-1" d="M645.23,208h-2.13a.23.23,0,0,0-.27.27v.57h-.78v-.9c0-.53.17-.7.7-.7h5.82c.53,0,.7.17.7.7v.9h-.79v-.57c0-.2-.09-.27-.27-.27h-2.12v7.84h-.86Z" transform="translate(-527.53 -188.14)"/><path class="cls-1" d="M654.15,205.18h.93L654,206.63h-.72ZM651.37,208h-.79v-.76h4.92c.53,0,.75.22.75.75v.86h-.81v-.57a.24.24,0,0,0-.27-.27h-2.94v3.13h3.23v.76h-3.23v2.92a.24.24,0,0,0,.27.27h3a.24.24,0,0,0,.27-.27v-.57h.79v.86c0,.53-.22.75-.75.75h-3.72c-.52,0-.75-.22-.75-.75Z" transform="translate(-527.53 -188.14)"/><path class="cls-1" d="M663.75,215.05h1.44a3.54,3.54,0,0,0,0-7.08h-1.71v6.81a.24.24,0,0,0,.27.27M662.63,208h-.79v-.76h3.45a4.3,4.3,0,1,1,0,8.6h-1.91c-.52,0-.75-.22-.75-.75Z" transform="translate(-527.53 -188.14)"/><path class="cls-1" d="M672,208h-.79v-.76h4.92c.53,0,.75.22.75.75v.86H676v-.57a.24.24,0,0,0-.27-.27h-2.94v3.13h3.23v.76h-3.23v2.92a.24.24,0,0,0,.27.27h3a.24.24,0,0,0,.27-.27v-.57h.8v.86c0,.53-.22.75-.75.75h-3.72c-.52,0-.75-.22-.75-.75Z" transform="translate(-527.53 -188.14)"/><path class="cls-1" d="M604.94,226.66a3.14,3.14,0,0,0,2.16,1,1.34,1.34,0,0,0,1.48-1.29c0-1.81-4.17-1.53-4.17-4.22a2.49,2.49,0,0,1,2.76-2.31c.92,0,2.46.42,2.46,1.59v.71h-1.12v-.4c0-.45-.65-.78-1.33-.78-.93,0-1.52.51-1.52,1.16,0,1.75,4.16,1.36,4.16,4.19a2.51,2.51,0,0,1-2.74,2.46,3.86,3.86,0,0,1-2.86-1.29Z" transform="translate(-527.53 -188.14)"/><path class="cls-1" d="M616.43,225.18l-1.14-3.07c-.15-.4-.33-1.11-.33-1.11h0s-.18.71-.33,1.11l-1.13,3.07Zm-5.34,2.73h.16c.22,0,.35,0,.44-.27l2.81-7.57h.92l2.81,7.57c.09.23.21.27.44.27h.15v.76h-.39c-.61,0-.8-.12-1-.71l-.75-2h-3.41l-.76,2c-.22.59-.39.71-1,.71h-.4Z" transform="translate(-527.53 -188.14)"/><path class="cls-1" d="M615.78,215.17a3.57,3.57,0,0,0,3.48-3.69,3.49,3.49,0,1,0-7,0,3.56,3.56,0,0,0,3.49,3.69m0-8.08a4.35,4.35,0,0,1,4.38,4.39,4.38,4.38,0,1,1-8.76,0,4.34,4.34,0,0,1,4.38-4.39" transform="translate(-527.53 -188.14)"/><path class="cls-1" d="M625.93,207.08c1.22,0,3.22.53,3.22,1.82v.71h-.81v-.48c0-.81-1.39-1.25-2.39-1.25a3.39,3.39,0,0,0-3.37,3.57,3.52,3.52,0,0,0,3.41,3.71A3.93,3.93,0,0,0,628.8,214l.49.62A4.56,4.56,0,0,1,626,216a4.31,4.31,0,0,1-4.29-4.51,4.22,4.22,0,0,1,4.24-4.38" transform="translate(-527.53 -188.14)"/><polygon class="cls-1" points="103.35 26.93 104.16 26.93 104.16 19.85 103.35 19.85 103.35 19.09 105.81 19.09 105.81 19.85 104.99 19.85 104.99 26.93 105.81 26.93 105.81 27.68 103.35 27.68 103.35 26.93"/><path class="cls-1" d="M660.54,227.91h.53a.24.24,0,0,0,.27-.27v-7.57h.78l4.39,6.13c.29.43.7,1.12.7,1.12h0s-.06-.67-.06-1.12v-5.38c0-.53.22-.75.75-.75h.9v.76h-.53a.24.24,0,0,0-.27.27v7.57h-.78l-4.39-6.13c-.31-.42-.71-1.11-.71-1.11h0s.07.66.07,1.11v5.38c0,.53-.22.75-.75.75h-.9Z" transform="translate(-527.53 -188.14)"/><path class="cls-1" d="M674.64,219.92c1.22,0,3.22.53,3.22,1.82v.71H677V222c0-.81-1.39-1.25-2.38-1.25a3.39,3.39,0,0,0-3.38,3.57A3.52,3.52,0,0,0,674.7,228a3.93,3.93,0,0,0,2.81-1.21l.49.62a4.56,4.56,0,0,1-3.31,1.39,4.31,4.31,0,0,1-4.29-4.51,4.22,4.22,0,0,1,4.24-4.38" transform="translate(-527.53 -188.14)"/><path class="cls-1" d="M680.34,220.83h-.79v-.76h4.92c.53,0,.75.22.75.75v.86h-.81v-.57a.24.24,0,0,0-.27-.27H681.2V224h3.23v.76H681.2v2.92a.24.24,0,0,0,.27.27h3a.24.24,0,0,0,.27-.27v-.57h.79v.86c0,.53-.22.75-.75.75h-3.72c-.52,0-.75-.22-.75-.75Z" transform="translate(-527.53 -188.14)"/><path class="cls-1" d="M687,227.91h.53a.24.24,0,0,0,.27-.27v-7.57h.78L693,226.2c.29.43.7,1.12.7,1.12h0s-.06-.67-.06-1.12v-5.38c0-.53.22-.75.75-.75h.9v.76h-.53a.24.24,0,0,0-.27.27v7.57h-.78l-4.39-6.13c-.31-.42-.71-1.11-.71-1.11h0s.07.66.07,1.11v5.38c0,.53-.22.75-.75.75H687Z" transform="translate(-527.53 -188.14)"/><path class="cls-1" d="M699.74,220.83h-2.13a.24.24,0,0,0-.27.27v.57h-.78v-.9c0-.53.17-.7.7-.7h5.82c.53,0,.7.17.7.7v.9H703v-.57c0-.2-.09-.27-.27-.27H700.6v7.84h-.86Z" transform="translate(-527.53 -188.14)"/><path class="cls-1" d="M710.7,227.91h1.44a3.54,3.54,0,0,0,0-7.08h-1.71v6.81a.24.24,0,0,0,.27.27m-1.13-7.08h-.79v-.76h3.45a4.3,4.3,0,1,1,0,8.6h-1.91c-.52,0-.75-.22-.75-.75Z" transform="translate(-527.53 -188.14)"/><path class="cls-1" d="M718.93,220.83h-.79v-.76h4.92c.53,0,.75.22.75.75v.86H723v-.57a.24.24,0,0,0-.27-.27h-2.94V224H723v.76h-3.23v2.92a.24.24,0,0,0,.27.27h3a.24.24,0,0,0,.27-.27v-.57h.79v.86c0,.53-.22.75-.75.75h-3.72c-.52,0-.75-.22-.75-.75Z" transform="translate(-527.53 -188.14)"/><path class="cls-1" d="M742.35,225.18l-1.14-3.07c-.15-.4-.33-1.11-.33-1.11h0s-.18.71-.33,1.11l-1.12,3.07ZM737,227.91h.16c.22,0,.35,0,.44-.27l2.81-7.57h.92l2.81,7.57c.09.23.21.27.44.27h.15v.76h-.39c-.61,0-.79-.12-1-.71l-.75-2h-3.41l-.76,2c-.22.59-.39.71-1,.71H737Z" transform="translate(-527.53 -188.14)"/><path class="cls-1" d="M746.47,221.1a.24.24,0,0,0-.27-.27h-.53v-.76h.91c.52,0,.75.22.75.75v4.87a2.32,2.32,0,1,0,4.64,0v-4.84c0-.53.22-.75.75-.75h.9v.76h-.53a.24.24,0,0,0-.27.27v4.62a3.17,3.17,0,0,1-6.35,0Z" transform="translate(-527.53 -188.14)"/><path class="cls-1" d="M755.95,221.1a.24.24,0,0,0-.27-.27h-.53v-.76h.9c.53,0,.75.22.75.75v6.82a.24.24,0,0,0,.27.27h2.85a.24.24,0,0,0,.27-.27v-.57H761v.86c0,.52-.22.75-.75.75h-3.56c-.52,0-.75-.22-.75-.75Z" transform="translate(-527.53 -188.14)"/><path class="cls-1" d="M624.29,227.91h.53a.24.24,0,0,0,.27-.27v-7.57h.78l4.39,6.13c.29.43.7,1.12.7,1.12h0s-.06-.67-.06-1.12v-5.38c0-.53.22-.75.75-.75h.9v.76H632a.24.24,0,0,0-.27.27v7.57H631l-4.39-6.13c-.3-.42-.71-1.11-.71-1.11h0s.07.66.07,1.11v5.38c0,.53-.22.75-.75.75h-.9Z" transform="translate(-527.53 -188.14)"/><path class="cls-1" d="M637.05,220.83h-2.13a.24.24,0,0,0-.27.27v.57h-.78v-.9c0-.53.17-.7.7-.7h5.82c.53,0,.7.17.7.7v.9h-.79v-.57c0-.2-.09-.27-.27-.27h-2.12v7.84h-.86Z" transform="translate(-527.53 -188.14)"/><path class="cls-1" d="M647.77,221.35a.35.35,0,0,0-.4-.27h-.17V220h.69c.61,0,.82.13,1,.71l1.89,5.32c.16.47.33,1.19.33,1.19h0a11.6,11.6,0,0,1,.33-1.19l1.9-5.32c.21-.58.4-.71,1-.71h.69v1.05h-.17c-.22,0-.33,0-.4.27l-2.72,7.31h-1.3Z" transform="translate(-527.53 -188.14)"/><polygon class="cls-1" points="128.86 39.77 129.66 39.77 129.66 32.69 128.86 32.69 128.86 31.93 131.31 31.93 131.31 32.69 130.5 32.69 130.5 39.77 131.31 39.77 131.31 40.53 128.86 40.53 128.86 39.77"/><path class="cls-1" d="M733.07,224.42a1.54,1.54,0,0,0,1.64-1.69,1.51,1.51,0,0,0-1.63-1.65h-1.6v3.34Zm-2.81-3.34h-.79V220h3.8a2.57,2.57,0,0,1,2.7,2.7,2.6,2.6,0,0,1-2.7,2.74h-1.78v3.19h-1.22Z" transform="translate(-527.53 -188.14)"/><path class="cls-1" d="M634.09,239.55a.89.89,0,0,0,1-1,.88.88,0,0,0-1-.94h-1v1.9Zm-1.4-1.9h-.41v-.39h1.86a1.34,1.34,0,1,1,0,2.68h-1v1.73h-.44Z" transform="translate(-527.53 -188.14)"/><path class="cls-1" d="M638.41,239.88l-.58-1.57c-.08-.21-.17-.57-.17-.57h0s-.09.36-.17.57l-.57,1.57Zm-2.74,1.4h.08c.11,0,.18,0,.23-.14l1.44-3.88h.47l1.44,3.88c0,.12.11.14.23.14h.08v.39h-.2c-.31,0-.41-.06-.52-.36l-.38-1h-1.75l-.39,1c-.11.3-.2.36-.51.36h-.21Z" transform="translate(-527.53 -188.14)"/><path class="cls-1" d="M642.11,239.42a.81.81,0,0,0,.85-.89.8.8,0,0,0-.85-.88h-1v1.77Zm-1.42-1.77h-.41v-.39h1.87a1.19,1.19,0,0,1,1.26,1.25,1.13,1.13,0,0,1-.85,1.18h0a.43.43,0,0,1,.15.18l.63,1.25c.06.13.16.14.31.14h.09v.39h-.19c-.36,0-.46,0-.61-.33l-.63-1.26a.39.39,0,0,0-.45-.26h-.74v1.85h-.44Z" transform="translate(-527.53 -188.14)"/><path class="cls-1" d="M646.81,237.65h-.41v-.39h2.34c.27,0,.38.11.38.38v.44h-.41v-.29a.12.12,0,0,0-.14-.14h-1.33v1.65h1.6v.39h-1.6v2h-.44Z" transform="translate(-527.53 -188.14)"/><path class="cls-1" d="M651.67,239.42a.81.81,0,0,0,.85-.89.8.8,0,0,0-.85-.88h-1v1.77Zm-1.42-1.77h-.41v-.39h1.87a1.19,1.19,0,0,1,1.27,1.25,1.13,1.13,0,0,1-.85,1.18h0a.42.42,0,0,1,.15.18l.63,1.25c.06.13.16.14.31.14h.09v.39h-.19c-.36,0-.46,0-.61-.33l-.63-1.26a.39.39,0,0,0-.44-.26h-.74v1.85h-.44Z" transform="translate(-527.53 -188.14)"/><path class="cls-1" d="M655.77,236.21h.48l-.54.75h-.37Zm-1.42,1.44h-.41v-.39h2.52c.27,0,.38.11.38.38v.44h-.41v-.29a.12.12,0,0,0-.14-.14h-1.5v1.6h1.65v.39h-1.65v1.5a.12.12,0,0,0,.14.14h1.55a.12.12,0,0,0,.14-.14v-.29H657v.44c0,.27-.11.38-.38.38h-1.9c-.27,0-.38-.11-.38-.38Z" transform="translate(-527.53 -188.14)"/><path class="cls-1" d="M658.73,241.28h.74a1.81,1.81,0,0,0,0-3.63h-.88v3.49a.12.12,0,0,0,.14.14m-.58-3.63h-.41v-.39h1.77a2.2,2.2,0,1,1,0,4.4h-1c-.27,0-.38-.11-.38-.38Z" transform="translate(-527.53 -188.14)"/><path class="cls-1" d="M664.37,236.21h.48l-.54.75h-.37Zm-1.42,1.44h-.41v-.39h2.52c.27,0,.38.11.38.38v.44H665v-.29a.12.12,0,0,0-.14-.14h-1.5v1.6H665v.39h-1.65v1.5a.12.12,0,0,0,.14.14h1.55a.12.12,0,0,0,.14-.14v-.29h.41v.44c0,.27-.11.38-.38.38h-1.9c-.27,0-.38-.11-.38-.38Z" transform="translate(-527.53 -188.14)"/><path class="cls-1" d="M668.17,239.42a.81.81,0,0,0,.85-.89.8.8,0,0,0-.85-.88h-1v1.77Zm-1.42-1.77h-.41v-.39h1.87a1.19,1.19,0,0,1,1.27,1.25,1.13,1.13,0,0,1-.85,1.18h0a.42.42,0,0,1,.15.18l.63,1.25c.06.13.16.14.31.14h.09v.39h-.19c-.36,0-.46,0-.61-.33l-.63-1.26a.39.39,0,0,0-.44-.26h-.74v1.85h-.44Z" transform="translate(-527.53 -188.14)"/><path class="cls-1" d="M674.75,237.19c.63,0,1.65.27,1.65.93v.36H676v-.24c0-.41-.71-.64-1.22-.64a1.74,1.74,0,0,0-1.73,1.83,1.8,1.8,0,0,0,1.75,1.9,2,2,0,0,0,1.44-.62l.25.32a2.34,2.34,0,0,1-1.7.71,2.21,2.21,0,0,1-2.2-2.31,2.16,2.16,0,0,1,2.17-2.24" transform="translate(-527.53 -188.14)"/><path class="cls-1" d="M681.49,241.33a1.83,1.83,0,0,0,1.79-1.89,1.79,1.79,0,1,0-3.57,0,1.83,1.83,0,0,0,1.79,1.89m0-4.14a2.23,2.23,0,0,1,2.24,2.25,2.24,2.24,0,1,1-4.49,0,2.22,2.22,0,0,1,2.24-2.25" transform="translate(-527.53 -188.14)"/><path class="cls-1" d="M684.4,241.36l2.36-3.31a4.14,4.14,0,0,1,.32-.4H685a.12.12,0,0,0-.14.14v.29h-.41v-.44c0-.27.11-.38.38-.38h2.77v.31l-2.36,3.31a3.91,3.91,0,0,1-.32.4h2.22a.12.12,0,0,0,.14-.14v-.29h.41v.44c0,.27-.11.38-.38.38H684.4Z" transform="translate(-527.53 -188.14)"/><path class="cls-1" d="M691,239.88l-.58-1.57c-.08-.21-.17-.57-.17-.57h0s-.09.36-.17.57l-.58,1.57Zm-2.74,1.4h.08c.11,0,.18,0,.22-.14l1.44-3.88h.47l1.44,3.88c0,.12.11.14.22.14h.08v.39H692c-.31,0-.41-.06-.52-.36l-.38-1h-1.75l-.39,1c-.11.3-.2.36-.51.36h-.21Z" transform="translate(-527.53 -188.14)"/><path class="cls-1" d="M692.88,241.28h.27a.12.12,0,0,0,.14-.14v-3.88h.4l2.25,3.14c.15.22.36.58.36.58h0s0-.34,0-.58v-2.76c0-.27.11-.38.38-.38h.46v.39h-.27a.12.12,0,0,0-.14.14v3.88h-.4l-2.25-3.14c-.16-.21-.36-.57-.36-.57h0s0,.34,0,.57v2.76c0,.27-.11.38-.38.38h-.46Z" transform="translate(-527.53 -188.14)"/><path class="cls-1" d="M700.5,239.88l-.58-1.57c-.08-.21-.17-.57-.17-.57h0s-.1.36-.17.57l-.58,1.57Zm-2.74,1.4h.08c.11,0,.18,0,.22-.14l1.44-3.88H700l1.44,3.88c0,.12.11.14.22.14h.08v.39h-.2c-.31,0-.41-.06-.52-.36l-.38-1h-1.75l-.39,1c-.11.3-.2.36-.51.36h-.21Z" transform="translate(-527.53 -188.14)"/><path class="cls-1" d="M702.26,241.28h.23c.09,0,.13,0,.14-.14l.31-3.88h.44l1.17,2.56c.11.22.22.52.22.52h0s.11-.29.21-.52l1.17-2.56h.44l.31,3.88c0,.09.05.14.14.14h.24v.39h-.43c-.27,0-.36-.11-.38-.38l-.21-2.68c0-.24,0-.61,0-.61h0a5.84,5.84,0,0,1-.23.61l-1,2.24h-.39l-1-2.24c-.1-.22-.23-.63-.23-.63h0s0,.39,0,.63l-.21,2.68c0,.27-.11.38-.38.38h-.42Z" transform="translate(-527.53 -188.14)"/><path class="cls-1" d="M604.63,237.65h-.41v-.39h2.34c.27,0,.38.11.38.38v.44h-.41v-.29a.12.12,0,0,0-.14-.14h-1.33v1.65h1.6v.39h-1.6v2h-.44Z" transform="translate(-527.53 -188.14)"/><path class="cls-1" d="M609.81,241.33a1.83,1.83,0,0,0,1.79-1.89,1.79,1.79,0,1,0-3.57,0,1.83,1.83,0,0,0,1.79,1.89m0-4.14a2.23,2.23,0,0,1,2.24,2.25,2.24,2.24,0,1,1-4.49,0,2.22,2.22,0,0,1,2.24-2.25" transform="translate(-527.53 -188.14)"/><path class="cls-1" d="M612.86,241.28h.27a.12.12,0,0,0,.14-.14v-3.88h.4l2.25,3.14c.15.22.36.58.36.58h0s0-.34,0-.58v-2.76c0-.27.11-.38.38-.38h.46v.39h-.27a.12.12,0,0,0-.14.14v3.88h-.4L614,238.53c-.16-.21-.36-.57-.36-.57h0s0,.34,0,.57v2.76c0,.27-.11.38-.38.38h-.46Z" transform="translate(-527.53 -188.14)"/><path class="cls-1" d="M618.92,241.28h.74a1.81,1.81,0,0,0,0-3.63h-.88v3.49a.12.12,0,0,0,.14.14m-.58-3.63h-.41v-.39h1.77a2.2,2.2,0,1,1,0,4.4h-1c-.27,0-.38-.11-.38-.38Z" transform="translate(-527.53 -188.14)"/><path class="cls-1" d="M624.55,236.21H625l-.54.75h-.37Zm-1.42,1.44h-.41v-.39h2.52c.27,0,.38.11.38.38v.44h-.41v-.29a.12.12,0,0,0-.14-.14h-1.5v1.6h1.65v.39h-1.65v1.5a.12.12,0,0,0,.14.14h1.55a.12.12,0,0,0,.14-.14v-.29h.41v.44c0,.27-.11.38-.38.38h-1.9c-.27,0-.38-.11-.38-.38Z" transform="translate(-527.53 -188.14)"/><path class="cls-1" d="M627,237.65h-.41v-.39h2.52c.27,0,.38.11.38.38v.44H629v-.29a.12.12,0,0,0-.14-.14h-1.5v1.6H629v.39h-1.65v1.5a.12.12,0,0,0,.14.14h1.55a.12.12,0,0,0,.14-.14v-.29h.41v.44c0,.27-.11.38-.38.38h-1.9c-.27,0-.38-.11-.38-.38Z" transform="translate(-527.53 -188.14)"/><path class="cls-1" d="M604.94,213.82a3.14,3.14,0,0,0,2.16,1,1.34,1.34,0,0,0,1.48-1.29c0-1.81-4.17-1.53-4.17-4.22a2.49,2.49,0,0,1,2.76-2.31c.92,0,2.46.42,2.46,1.59v.71h-1.12v-.4c0-.45-.65-.78-1.33-.78-.93,0-1.52.51-1.52,1.16,0,1.75,4.16,1.36,4.16,4.19a2.51,2.51,0,0,1-2.74,2.46,3.86,3.86,0,0,1-2.86-1.29Z" transform="translate(-527.53 -188.14)"/><rect class="cls-1" x="175.8" y="36.67" width="3.47" height="0.76"/><rect class="cls-1" x="197.73" y="36.67" width="3.47" height="0.76"/><rect class="cls-1" x="114.52" y="36.67" width="3.47" height="0.76"/><polygon class="cls-1" points="92.61 39.77 93.42 39.77 93.42 32.69 92.61 32.69 92.61 31.93 95.07 31.93 95.07 32.69 94.25 32.69 94.25 39.77 95.07 39.77 95.07 40.53 92.61 40.53 92.61 39.77"/><polygon class="cls-1" points="142.94 53.14 143.36 53.14 143.36 49.51 142.94 49.51 142.94 49.12 144.2 49.12 144.2 49.51 143.78 49.51 143.78 53.14 144.2 53.14 144.2 53.52 142.94 53.52 142.94 53.14"/><path class="cls-1" d="M638.6,205.18h.93l-1.06,1.45h-.72ZM635.83,208H635v-.76h4.92c.53,0,.75.22.75.75v.86h-.81v-.57a.24.24,0,0,0-.27-.27h-2.94v3.13h3.23v.76h-3.23v2.92a.24.24,0,0,0,.27.27h3a.24.24,0,0,0,.27-.27v-.57h.8v.86c0,.53-.22.75-.75.75h-3.72c-.52,0-.75-.22-.75-.75Z" transform="translate(-527.53 -188.14)"/><path class="cls-1" d="M645.23,208h-2.13a.23.23,0,0,0-.27.27v.57h-.78v-.9c0-.53.17-.7.7-.7h5.82c.53,0,.7.17.7.7v.9h-.79v-.57c0-.2-.09-.27-.27-.27h-2.12v7.84h-.86Z" transform="translate(-527.53 -188.14)"/><path class="cls-1" d="M654.15,205.18h.93L654,206.63h-.72ZM651.37,208h-.79v-.76h4.92c.53,0,.75.22.75.75v.86h-.81v-.57a.24.24,0,0,0-.27-.27h-2.94v3.13h3.23v.76h-3.23v2.92a.24.24,0,0,0,.27.27h3a.24.24,0,0,0,.27-.27v-.57h.79v.86c0,.53-.22.75-.75.75h-3.72c-.52,0-.75-.22-.75-.75Z" transform="translate(-527.53 -188.14)"/><path class="cls-1" d="M663.75,215.05h1.44a3.54,3.54,0,0,0,0-7.08h-1.71v6.81a.24.24,0,0,0,.27.27M662.63,208h-.79v-.76h3.45a4.3,4.3,0,1,1,0,8.6h-1.91c-.52,0-.75-.22-.75-.75Z" transform="translate(-527.53 -188.14)"/><path class="cls-1" d="M672,208h-.79v-.76h4.92c.53,0,.75.22.75.75v.86H676v-.57a.24.24,0,0,0-.27-.27h-2.94v3.13h3.23v.76h-3.23v2.92a.24.24,0,0,0,.27.27h3a.24.24,0,0,0,.27-.27v-.57h.8v.86c0,.53-.22.75-.75.75h-3.72c-.52,0-.75-.22-.75-.75Z" transform="translate(-527.53 -188.14)"/><path class="cls-1" d="M604.94,226.66a3.14,3.14,0,0,0,2.16,1,1.34,1.34,0,0,0,1.48-1.29c0-1.81-4.17-1.53-4.17-4.22a2.49,2.49,0,0,1,2.76-2.31c.92,0,2.46.42,2.46,1.59v.71h-1.12v-.4c0-.45-.65-.78-1.33-.78-.93,0-1.52.51-1.52,1.16,0,1.75,4.16,1.36,4.16,4.19a2.51,2.51,0,0,1-2.74,2.46,3.86,3.86,0,0,1-2.86-1.29Z" transform="translate(-527.53 -188.14)"/><path class="cls-1" d="M616.43,225.18l-1.14-3.07c-.15-.4-.33-1.11-.33-1.11h0s-.18.71-.33,1.11l-1.13,3.07Zm-5.34,2.73h.16c.22,0,.35,0,.44-.27l2.81-7.57h.92l2.81,7.57c.09.23.21.27.44.27h.15v.76h-.39c-.61,0-.8-.12-1-.71l-.75-2h-3.41l-.76,2c-.22.59-.39.71-1,.71h-.4Z" transform="translate(-527.53 -188.14)"/><path class="cls-1" d="M615.78,215.17a3.57,3.57,0,0,0,3.48-3.69,3.49,3.49,0,1,0-7,0,3.56,3.56,0,0,0,3.49,3.69m0-8.08a4.35,4.35,0,0,1,4.38,4.39,4.38,4.38,0,1,1-8.76,0,4.34,4.34,0,0,1,4.38-4.39" transform="translate(-527.53 -188.14)"/><polygon class="cls-1" points="103.35 26.93 104.16 26.93 104.16 19.85 103.35 19.85 103.35 19.09 105.81 19.09 105.81 19.85 104.99 19.85 104.99 26.93 105.81 26.93 105.81 27.68 103.35 27.68 103.35 26.93"/><path class="cls-1" d="M660.54,227.91h.53a.24.24,0,0,0,.27-.27v-7.57h.78l4.39,6.13c.29.43.7,1.12.7,1.12h0s-.06-.67-.06-1.12v-5.38c0-.53.22-.75.75-.75h.9v.76h-.53a.24.24,0,0,0-.27.27v7.57h-.78l-4.39-6.13c-.31-.42-.71-1.11-.71-1.11h0s.07.66.07,1.11v5.38c0,.53-.22.75-.75.75h-.9Z" transform="translate(-527.53 -188.14)"/><path class="cls-1" d="M674.64,219.92c1.22,0,3.22.53,3.22,1.82v.71H677V222c0-.81-1.39-1.25-2.38-1.25a3.39,3.39,0,0,0-3.38,3.57A3.52,3.52,0,0,0,674.7,228a3.93,3.93,0,0,0,2.81-1.21l.49.62a4.56,4.56,0,0,1-3.31,1.39,4.31,4.31,0,0,1-4.29-4.51,4.22,4.22,0,0,1,4.24-4.38" transform="translate(-527.53 -188.14)"/><path class="cls-1" d="M680.34,220.83h-.79v-.76h4.92c.53,0,.75.22.75.75v.86h-.81v-.57a.24.24,0,0,0-.27-.27H681.2V224h3.23v.76H681.2v2.92a.24.24,0,0,0,.27.27h3a.24.24,0,0,0,.27-.27v-.57h.79v.86c0,.53-.22.75-.75.75h-3.72c-.52,0-.75-.22-.75-.75Z" transform="translate(-527.53 -188.14)"/><path class="cls-1" d="M687,227.91h.53a.24.24,0,0,0,.27-.27v-7.57h.78L693,226.2c.29.43.7,1.12.7,1.12h0s-.06-.67-.06-1.12v-5.38c0-.53.22-.75.75-.75h.9v.76h-.53a.24.24,0,0,0-.27.27v7.57h-.78l-4.39-6.13c-.31-.42-.71-1.11-.71-1.11h0s.07.66.07,1.11v5.38c0,.53-.22.75-.75.75H687Z" transform="translate(-527.53 -188.14)"/><path class="cls-1" d="M699.74,220.83h-2.13a.24.24,0,0,0-.27.27v.57h-.78v-.9c0-.53.17-.7.7-.7h5.82c.53,0,.7.17.7.7v.9H703v-.57c0-.2-.09-.27-.27-.27H700.6v7.84h-.86Z" transform="translate(-527.53 -188.14)"/><path class="cls-1" d="M710.7,227.91h1.44a3.54,3.54,0,0,0,0-7.08h-1.71v6.81a.24.24,0,0,0,.27.27m-1.13-7.08h-.79v-.76h3.45a4.3,4.3,0,1,1,0,8.6h-1.91c-.52,0-.75-.22-.75-.75Z" transform="translate(-527.53 -188.14)"/><path class="cls-1" d="M718.93,220.83h-.79v-.76h4.92c.53,0,.75.22.75.75v.86H723v-.57a.24.24,0,0,0-.27-.27h-2.94V224H723v.76h-3.23v2.92a.24.24,0,0,0,.27.27h3a.24.24,0,0,0,.27-.27v-.57h.79v.86c0,.53-.22.75-.75.75h-3.72c-.52,0-.75-.22-.75-.75Z" transform="translate(-527.53 -188.14)"/><path class="cls-1" d="M742.35,225.18l-1.14-3.07c-.15-.4-.33-1.11-.33-1.11h0s-.18.71-.33,1.11l-1.12,3.07ZM737,227.91h.16c.22,0,.35,0,.44-.27l2.81-7.57h.92l2.81,7.57c.09.23.21.27.44.27h.15v.76h-.39c-.61,0-.79-.12-1-.71l-.75-2h-3.41l-.76,2c-.22.59-.39.71-1,.71H737Z" transform="translate(-527.53 -188.14)"/><path class="cls-1" d="M746.47,221.1a.24.24,0,0,0-.27-.27h-.53v-.76h.91c.52,0,.75.22.75.75v4.87a2.32,2.32,0,1,0,4.64,0v-4.84c0-.53.22-.75.75-.75h.9v.76h-.53a.24.24,0,0,0-.27.27v4.62a3.17,3.17,0,0,1-6.35,0Z" transform="translate(-527.53 -188.14)"/><path class="cls-1" d="M755.95,221.1a.24.24,0,0,0-.27-.27h-.53v-.76h.9c.53,0,.75.22.75.75v6.82a.24.24,0,0,0,.27.27h2.85a.24.24,0,0,0,.27-.27v-.57H761v.86c0,.52-.22.75-.75.75h-3.56c-.52,0-.75-.22-.75-.75Z" transform="translate(-527.53 -188.14)"/><path class="cls-1" d="M624.29,227.91h.53a.24.24,0,0,0,.27-.27v-7.57h.78l4.39,6.13c.29.43.7,1.12.7,1.12h0s-.06-.67-.06-1.12v-5.38c0-.53.22-.75.75-.75h.9v.76H632a.24.24,0,0,0-.27.27v7.57H631l-4.39-6.13c-.3-.42-.71-1.11-.71-1.11h0s.07.66.07,1.11v5.38c0,.53-.22.75-.75.75h-.9Z" transform="translate(-527.53 -188.14)"/><path class="cls-1" d="M637.05,220.83h-2.13a.24.24,0,0,0-.27.27v.57h-.78v-.9c0-.53.17-.7.7-.7h5.82c.53,0,.7.17.7.7v.9h-.79v-.57c0-.2-.09-.27-.27-.27h-2.12v7.84h-.86Z" transform="translate(-527.53 -188.14)"/><path class="cls-1" d="M647.77,221.35a.35.35,0,0,0-.4-.27h-.17V220h.69c.61,0,.82.13,1,.71l1.89,5.32c.16.47.33,1.19.33,1.19h0a11.6,11.6,0,0,1,.33-1.19l1.9-5.32c.21-.58.4-.71,1-.71h.69v1.05h-.17c-.22,0-.33,0-.4.27l-2.72,7.31h-1.3Z" transform="translate(-527.53 -188.14)"/><polygon class="cls-1" points="128.86 39.77 129.66 39.77 129.66 32.69 128.86 32.69 128.86 31.93 131.31 31.93 131.31 32.69 130.5 32.69 130.5 39.77 131.31 39.77 131.31 40.53 128.86 40.53 128.86 39.77"/><path class="cls-1" d="M733.07,224.42a1.54,1.54,0,0,0,1.64-1.69,1.51,1.51,0,0,0-1.63-1.65h-1.6v3.34Zm-2.81-3.34h-.79V220h3.8a2.57,2.57,0,0,1,2.7,2.7,2.6,2.6,0,0,1-2.7,2.74h-1.78v3.19h-1.22Z" transform="translate(-527.53 -188.14)"/><path class="cls-1" d="M634.09,239.55a.89.89,0,0,0,1-1,.88.88,0,0,0-1-.94h-1v1.9Zm-1.4-1.9h-.41v-.39h1.86a1.34,1.34,0,1,1,0,2.68h-1v1.73h-.44Z" transform="translate(-527.53 -188.14)"/><path class="cls-1" d="M638.41,239.88l-.58-1.57c-.08-.21-.17-.57-.17-.57h0s-.09.36-.17.57l-.57,1.57Zm-2.74,1.4h.08c.11,0,.18,0,.23-.14l1.44-3.88h.47l1.44,3.88c0,.12.11.14.23.14h.08v.39h-.2c-.31,0-.41-.06-.52-.36l-.38-1h-1.75l-.39,1c-.11.3-.2.36-.51.36h-.21Z" transform="translate(-527.53 -188.14)"/><path class="cls-1" d="M642.11,239.42a.81.81,0,0,0,.85-.89.8.8,0,0,0-.85-.88h-1v1.77Zm-1.42-1.77h-.41v-.39h1.87a1.19,1.19,0,0,1,1.26,1.25,1.13,1.13,0,0,1-.85,1.18h0a.43.43,0,0,1,.15.18l.63,1.25c.06.13.16.14.31.14h.09v.39h-.19c-.36,0-.46,0-.61-.33l-.63-1.26a.39.39,0,0,0-.45-.26h-.74v1.85h-.44Z" transform="translate(-527.53 -188.14)"/><path class="cls-1" d="M646.81,237.65h-.41v-.39h2.34c.27,0,.38.11.38.38v.44h-.41v-.29a.12.12,0,0,0-.14-.14h-1.33v1.65h1.6v.39h-1.6v2h-.44Z" transform="translate(-527.53 -188.14)"/><path class="cls-1" d="M651.67,239.42a.81.81,0,0,0,.85-.89.8.8,0,0,0-.85-.88h-1v1.77Zm-1.42-1.77h-.41v-.39h1.87a1.19,1.19,0,0,1,1.27,1.25,1.13,1.13,0,0,1-.85,1.18h0a.42.42,0,0,1,.15.18l.63,1.25c.06.13.16.14.31.14h.09v.39h-.19c-.36,0-.46,0-.61-.33l-.63-1.26a.39.39,0,0,0-.44-.26h-.74v1.85h-.44Z" transform="translate(-527.53 -188.14)"/><path class="cls-1" d="M655.77,236.21h.48l-.54.75h-.37Zm-1.42,1.44h-.41v-.39h2.52c.27,0,.38.11.38.38v.44h-.41v-.29a.12.12,0,0,0-.14-.14h-1.5v1.6h1.65v.39h-1.65v1.5a.12.12,0,0,0,.14.14h1.55a.12.12,0,0,0,.14-.14v-.29H657v.44c0,.27-.11.38-.38.38h-1.9c-.27,0-.38-.11-.38-.38Z" transform="translate(-527.53 -188.14)"/><path class="cls-1" d="M658.73,241.28h.74a1.81,1.81,0,0,0,0-3.63h-.88v3.49a.12.12,0,0,0,.14.14m-.58-3.63h-.41v-.39h1.77a2.2,2.2,0,1,1,0,4.4h-1c-.27,0-.38-.11-.38-.38Z" transform="translate(-527.53 -188.14)"/><path class="cls-1" d="M664.37,236.21h.48l-.54.75h-.37Zm-1.42,1.44h-.41v-.39h2.52c.27,0,.38.11.38.38v.44H665v-.29a.12.12,0,0,0-.14-.14h-1.5v1.6H665v.39h-1.65v1.5a.12.12,0,0,0,.14.14h1.55a.12.12,0,0,0,.14-.14v-.29h.41v.44c0,.27-.11.38-.38.38h-1.9c-.27,0-.38-.11-.38-.38Z" transform="translate(-527.53 -188.14)"/><path class="cls-1" d="M668.17,239.42a.81.81,0,0,0,.85-.89.8.8,0,0,0-.85-.88h-1v1.77Zm-1.42-1.77h-.41v-.39h1.87a1.19,1.19,0,0,1,1.27,1.25,1.13,1.13,0,0,1-.85,1.18h0a.42.42,0,0,1,.15.18l.63,1.25c.06.13.16.14.31.14h.09v.39h-.19c-.36,0-.46,0-.61-.33l-.63-1.26a.39.39,0,0,0-.44-.26h-.74v1.85h-.44Z" transform="translate(-527.53 -188.14)"/><path class="cls-1" d="M674.75,237.19c.63,0,1.65.27,1.65.93v.36H676v-.24c0-.41-.71-.64-1.22-.64a1.74,1.74,0,0,0-1.73,1.83,1.8,1.8,0,0,0,1.75,1.9,2,2,0,0,0,1.44-.62l.25.32a2.34,2.34,0,0,1-1.7.71,2.21,2.21,0,0,1-2.2-2.31,2.16,2.16,0,0,1,2.17-2.24" transform="translate(-527.53 -188.14)"/><path class="cls-1" d="M681.49,241.33a1.83,1.83,0,0,0,1.79-1.89,1.79,1.79,0,1,0-3.57,0,1.83,1.83,0,0,0,1.79,1.89m0-4.14a2.23,2.23,0,0,1,2.24,2.25,2.24,2.24,0,1,1-4.49,0,2.22,2.22,0,0,1,2.24-2.25" transform="translate(-527.53 -188.14)"/><path class="cls-1" d="M684.4,241.36l2.36-3.31a4.14,4.14,0,0,1,.32-.4H685a.12.12,0,0,0-.14.14v.29h-.41v-.44c0-.27.11-.38.38-.38h2.77v.31l-2.36,3.31a3.91,3.91,0,0,1-.32.4h2.22a.12.12,0,0,0,.14-.14v-.29h.41v.44c0,.27-.11.38-.38.38H684.4Z" transform="translate(-527.53 -188.14)"/><path class="cls-1" d="M691,239.88l-.58-1.57c-.08-.21-.17-.57-.17-.57h0s-.09.36-.17.57l-.58,1.57Zm-2.74,1.4h.08c.11,0,.18,0,.22-.14l1.44-3.88h.47l1.44,3.88c0,.12.11.14.22.14h.08v.39H692c-.31,0-.41-.06-.52-.36l-.38-1h-1.75l-.39,1c-.11.3-.2.36-.51.36h-.21Z" transform="translate(-527.53 -188.14)"/><path class="cls-1" d="M692.88,241.28h.27a.12.12,0,0,0,.14-.14v-3.88h.4l2.25,3.14c.15.22.36.58.36.58h0s0-.34,0-.58v-2.76c0-.27.11-.38.38-.38h.46v.39h-.27a.12.12,0,0,0-.14.14v3.88h-.4l-2.25-3.14c-.16-.21-.36-.57-.36-.57h0s0,.34,0,.57v2.76c0,.27-.11.38-.38.38h-.46Z" transform="translate(-527.53 -188.14)"/><path class="cls-1" d="M700.5,239.88l-.58-1.57c-.08-.21-.17-.57-.17-.57h0s-.1.36-.17.57l-.58,1.57Zm-2.74,1.4h.08c.11,0,.18,0,.22-.14l1.44-3.88H700l1.44,3.88c0,.12.11.14.22.14h.08v.39h-.2c-.31,0-.41-.06-.52-.36l-.38-1h-1.75l-.39,1c-.11.3-.2.36-.51.36h-.21Z" transform="translate(-527.53 -188.14)"/><path class="cls-1" d="M702.26,241.28h.23c.09,0,.13,0,.14-.14l.31-3.88h.44l1.17,2.56c.11.22.22.52.22.52h0s.11-.29.21-.52l1.17-2.56h.44l.31,3.88c0,.09.05.14.14.14h.24v.39h-.43c-.27,0-.36-.11-.38-.38l-.21-2.68c0-.24,0-.61,0-.61h0a5.84,5.84,0,0,1-.23.61l-1,2.24h-.39l-1-2.24c-.1-.22-.23-.63-.23-.63h0s0,.39,0,.63l-.21,2.68c0,.27-.11.38-.38.38h-.42Z" transform="translate(-527.53 -188.14)"/><path class="cls-1" d="M604.63,237.65h-.41v-.39h2.34c.27,0,.38.11.38.38v.44h-.41v-.29a.12.12,0,0,0-.14-.14h-1.33v1.65h1.6v.39h-1.6v2h-.44Z" transform="translate(-527.53 -188.14)"/><path class="cls-1" d="M609.81,241.33a1.83,1.83,0,0,0,1.79-1.89,1.79,1.79,0,1,0-3.57,0,1.83,1.83,0,0,0,1.79,1.89m0-4.14a2.23,2.23,0,0,1,2.24,2.25,2.24,2.24,0,1,1-4.49,0,2.22,2.22,0,0,1,2.24-2.25" transform="translate(-527.53 -188.14)"/><path class="cls-1" d="M612.86,241.28h.27a.12.12,0,0,0,.14-.14v-3.88h.4l2.25,3.14c.15.22.36.58.36.58h0s0-.34,0-.58v-2.76c0-.27.11-.38.38-.38h.46v.39h-.27a.12.12,0,0,0-.14.14v3.88h-.4L614,238.53c-.16-.21-.36-.57-.36-.57h0s0,.34,0,.57v2.76c0,.27-.11.38-.38.38h-.46Z" transform="translate(-527.53 -188.14)"/><path class="cls-1" d="M618.92,241.28h.74a1.81,1.81,0,0,0,0-3.63h-.88v3.49a.12.12,0,0,0,.14.14m-.58-3.63h-.41v-.39h1.77a2.2,2.2,0,1,1,0,4.4h-1c-.27,0-.38-.11-.38-.38Z" transform="translate(-527.53 -188.14)"/><path class="cls-1" d="M624.55,236.21H625l-.54.75h-.37Zm-1.42,1.44h-.41v-.39h2.52c.27,0,.38.11.38.38v.44h-.41v-.29a.12.12,0,0,0-.14-.14h-1.5v1.6h1.65v.39h-1.65v1.5a.12.12,0,0,0,.14.14h1.55a.12.12,0,0,0,.14-.14v-.29h.41v.44c0,.27-.11.38-.38.38h-1.9c-.27,0-.38-.11-.38-.38Z" transform="translate(-527.53 -188.14)"/><path class="cls-1" d="M627,237.65h-.41v-.39h2.52c.27,0,.38.11.38.38v.44H629v-.29a.12.12,0,0,0-.14-.14h-1.5v1.6H629v.39h-1.65v1.5a.12.12,0,0,0,.14.14h1.55a.12.12,0,0,0,.14-.14v-.29h.41v.44c0,.27-.11.38-.38.38h-1.9c-.27,0-.38-.11-.38-.38Z" transform="translate(-527.53 -188.14)"/><path class="cls-1" d="M562.87,188.14a35.33,35.33,0,1,0,35.33,35.33,35.34,35.34,0,0,0-35.33-35.33m27,29.23-1.2.36c-.77.23-1.57.46-2.35.73s-1.75.6-2.6.92l-.87.32-1.24.46c-.74.27-1.5.55-2.23.84l-3.44,1.41-3,1.23,1.72.77,3.15,1.5h0l3,1.64.47.26c.84.45,1.7.92,2.49,1.46a16.37,16.37,0,0,1,1.39,1l1.32,1h0a.44.44,0,0,1-.26.8A.44.44,0,0,1,586,232l-1-.6c-.64-.39-1.3-.79-2-1.14s-1.58-.79-2.38-1.15l-.82-.37-1.17-.53c-.69-.32-1.4-.64-2.11-.93l-3.45-1.33-2.93-1.14-1.07.44-3.44,1.4c-1.09.45-2.21.86-3.3,1.25l-.2.07c-1.26.45-2.42.84-3.55,1.19s-2.32.7-3.62,1l-1.82.44-1.84.36L551,231l-.63.12-.92.13-1.86.27-1,.08-.63,0h-1.3l-1,0a13.85,13.85,0,0,1-3.84-.79,8.42,8.42,0,0,1-3.4-2.21,6.89,6.89,0,0,1-1.14-1.76,7.11,7.11,0,0,1-.36-1l0-.11a.89.89,0,0,1,0-.13v-.06l0-.23-.08-.48a.43.43,0,0,1,0-.06v0l0-.75s0-.06,0-.08l0-.45,0-.22v-.07c0-.08,0-.09,0-.11l0-.11,0-.25.05-.23c0-.15.08-.3.13-.48a8.52,8.52,0,0,1,.79-1.79,9.93,9.93,0,0,1,6-4.56,13.38,13.38,0,0,1,3.55-.46h.17a21.81,21.81,0,0,1,3.67.37c1,.19,2.16.45,3.53.82,2.13.58,4.36,1.26,6.84,2.08l.33.11,1.38.47,1.67.62,3.33,1.23,1.18.44c.71.26,1.43.53,2.18.83l1.07.45,5-1.86,3.42-1.22,3.45-1.11.55-.17c1-.31,1.94-.63,2.92-.89.6-.18,1.2-.32,1.77-.46l1.75-.42h.11a.45.45,0,0,1,.13.87" transform="translate(-527.53 -188.14)"/><path class="cls-1" d="M547,229.26l.17,0,.25,0,.9-.12,1.77-.23,1.76-.32.32-.06.54-.1.88-.2.63-.14,1.12-.26c2.14-.54,4.4-1.21,6.89-2,1.21-.4,2.32-.79,3.39-1.19l2-.75-1.07-.38-2.72-1-2.72-1-.66-.23-.67-.21-1.38-.43-2.74-.84-1-.29c-.58-.17-1.19-.35-1.78-.5l-.7-.19c-.71-.19-1.37-.38-2.06-.52a25.16,25.16,0,0,0-2.76-.47,17.07,17.07,0,0,0-1.84-.11c-.3,0-.61,0-.9,0a11.55,11.55,0,0,0-1.32.17l-.25.05-.41.1-.34.1-.15,0-.09,0h0l-.23.09-.25.1c-.17.07-.3.14-.45.21a7.45,7.45,0,0,0-.87.51,7.55,7.55,0,0,0-1.5,1.34,6.8,6.8,0,0,0-1.06,1.69,5.51,5.51,0,0,0-.31.92l-.05.24,0,.14v.06l0,.51,0,.53a4.51,4.51,0,0,0,.43,1.45,4.27,4.27,0,0,0,.9,1.24,7,7,0,0,0,2.84,1.53,13.76,13.76,0,0,0,3.37.51h.45l1.29,0Zm-4.46-5.4a1.6,1.6,0,1,1,1.6-1.6,1.6,1.6,0,0,1-1.6,1.6" transform="translate(-527.53 -188.14)"/><path class="cls-1" d="M604.94,213.82a3.14,3.14,0,0,0,2.16,1,1.34,1.34,0,0,0,1.48-1.29c0-1.81-4.17-1.53-4.17-4.22a2.49,2.49,0,0,1,2.76-2.31c.92,0,2.46.42,2.46,1.59v.71h-1.12v-.4c0-.45-.65-.78-1.33-.78-.93,0-1.52.51-1.52,1.16,0,1.75,4.16,1.36,4.16,4.19a2.51,2.51,0,0,1-2.74,2.46,3.86,3.86,0,0,1-2.86-1.29Z" transform="translate(-527.53 -188.14)"/><rect class="cls-1" x="175.8" y="36.67" width="3.47" height="0.76"/><rect class="cls-1" x="197.73" y="36.67" width="3.47" height="0.76"/><rect class="cls-1" x="114.52" y="36.67" width="3.47" height="0.76"/><polygon class="cls-1" points="92.61 39.77 93.42 39.77 93.42 32.69 92.61 32.69 92.61 31.93 95.07 31.93 95.07 32.69 94.25 32.69 94.25 39.77 95.07 39.77 95.07 40.53 92.61 40.53 92.61 39.77"/><polygon class="cls-1" points="142.94 53.14 143.36 53.14 143.36 49.51 142.94 49.51 142.94 49.12 144.2 49.12 144.2 49.51 143.78 49.51 143.78 53.14 144.2 53.14 144.2 53.52 142.94 53.52 142.94 53.14"/><rect class="cls-2" width="233.47" height="70.67"/></svg>
