<svg xmlns="http://www.w3.org/2000/svg" width="200.735" height="61.556"><path data-name="Path 1" d="M66.554 22.368a2.691 2.691 0 001.861.906 1.161 1.161 0 001.272-1.118c0-1.577-3.586-1.332-3.586-3.675a2.155 2.155 0 012.377-2.014c.789 0 2.114.362 2.114 1.385v.618h-.967v-.352c0-.394-.557-.681-1.146-.681-.8 0-1.3.448-1.3 1.012 0 1.523 3.576 1.182 3.576 3.654a2.173 2.173 0 01-2.356 2.142 3.307 3.307 0 01-2.461-1.119z" fill="#963f2c"/><path data-name="Path 2" d="M75.872 16.498a3.761 3.761 0 013.764 3.824 3.768 3.768 0 11-7.529 0 3.755 3.755 0 013.765-3.824m0 7.042a3.094 3.094 0 003-3.217 3 3 0 10-5.994 0 3.087 3.087 0 003 3.217" fill="#0063a4"/><path data-name="Path 3" d="M84.601 16.498c1.052 0 2.766.458 2.766 1.587v.618h-.69v-.415c0-.7-1.2-1.087-2.051-1.087a2.932 2.932 0 00-2.9 3.11 3.047 3.047 0 002.928 3.232 3.363 3.363 0 002.419-1.054l.42.543a3.9 3.9 0 01-2.849 1.214 3.729 3.729 0 01-3.692-3.931 3.658 3.658 0 013.649-3.814" fill="#0063a4"/><path data-name="Path 4" d="M88.862 23.451h.694v-6.168h-.694v-.66h2.114v.66h-.7v6.168h.7v.66h-2.114z" fill="#0063a4"/><path data-name="Path 5" d="M93.11 17.286h-.683v-.66h4.227c.452 0 .642.192.642.65v.745h-.693v-.5a.207.207 0 00-.231-.234h-2.524v2.727h2.776v.66h-2.776v2.546a.207.207 0 00.232.234h2.6a.207.207 0 00.231-.234v-.5h.68v.746c0 .458-.189.65-.641.65h-3.2c-.452 0-.641-.192-.641-.65zm2.387-2.45h.8l-.916 1.268h-.621z" fill="#0063a4"/><path data-name="Path 6" d="M101.198 17.286h-1.829c-.148 0-.232.064-.232.234v.5h-.673v-.788c0-.458.147-.607.6-.607h5.005c.452 0 .6.149.6.607v.788h-.683v-.5c0-.17-.073-.234-.231-.234h-1.819v6.829h-.736z" fill="#0063a4"/><path data-name="Path 7" d="M106.478 17.286h-.684v-.66h4.228c.452 0 .641.192.641.65v.745h-.693v-.5a.207.207 0 00-.231-.234h-2.524v2.727h2.776v.66h-2.776v2.546a.207.207 0 00.232.234h2.6a.207.207 0 00.231-.234v-.5h.684v.746c0 .458-.19.65-.641.65h-3.2c-.452 0-.641-.192-.641-.65zm2.387-2.45h.8l-.915 1.268h-.62z" fill="#0063a4"/><path data-name="Path 8" d="M116.152 17.274h-.684v-.66h2.965a3.745 3.745 0 010 7.489h-1.641c-.452 0-.641-.192-.641-.65zm.967 6.168h1.241a3.085 3.085 0 000-6.168h-1.472v5.934a.207.207 0 00.231.234" fill="#0063a4"/><path data-name="Path 9" d="M124.198 17.274h-.684v-.66h4.227c.452 0 .642.191.642.65v.745h-.694v-.5a.207.207 0 00-.231-.234h-2.524v2.727h2.776v.66h-2.776v2.546a.207.207 0 00.231.234h2.6a.207.207 0 00.231-.234v-.5h.684v.746c0 .458-.19.65-.642.65h-3.2c-.452 0-.641-.192-.641-.65z" fill="#0063a4"/><path data-name="Path 10" d="M66.554 33.553a2.691 2.691 0 001.861.906 1.161 1.161 0 001.272-1.118c0-1.577-3.586-1.332-3.586-3.675a2.155 2.155 0 012.377-2.014c.789 0 2.114.362 2.114 1.385v.618h-.967v-.352c0-.394-.557-.681-1.146-.681-.8 0-1.3.448-1.3 1.012 0 1.523 3.576 1.182 3.576 3.654a2.173 2.173 0 01-2.356 2.142 3.307 3.307 0 01-2.461-1.119z" fill="#963f2c"/><path data-name="Path 11" d="M71.834 34.64h.137c.189 0 .3-.032.378-.234l2.419-6.594h.789l2.419 6.594c.074.2.179.234.379.234h.126v.66h-.336c-.526 0-.684-.106-.873-.618l-.642-1.768h-2.933l-.652 1.768c-.19.512-.337.618-.862.618h-.347zm4.6-2.376l-.978-2.674c-.126-.352-.284-.97-.284-.97h-.022s-.158.618-.284.97l-.968 2.674z" fill="#0063a4"/><path data-name="Path 12" d="M79.628 34.639h.694v-6.168h-.694v-.66h2.114v.66h-.7v6.168h.7v.66h-2.114z" fill="#0063a4"/><path data-name="Path 13" d="M83.193 34.64h.453a.207.207 0 00.231-.234v-6.595h.673l3.775 5.337c.253.373.6.98.6.98h.021s-.053-.586-.053-.98V28.46c0-.458.19-.65.642-.65h.778v.66h-.453a.207.207 0 00-.231.234v6.594h-.673l-3.775-5.337c-.263-.362-.611-.969-.611-.969h-.021s.063.575.063.969v4.688c0 .458-.189.65-.642.65h-.778z" fill="#0063a4"/><path data-name="Path 14" d="M94.162 28.476h-1.83c-.148 0-.232.064-.232.234v.5h-.676v-.788c0-.458.148-.607.6-.607h5.005c.452 0 .6.149.6.607v.788h-.683v-.5c0-.17-.073-.234-.231-.234h-1.819v6.829h-.736z" fill="#0063a4"/><path data-name="Rectangle 1" fill="#0063a4" d="M98.464 31.944h2.987v.66h-2.987z"/><path data-name="Rectangle 2" fill="#0063a4" d="M151.154 31.944h2.987v.66h-2.987z"/><path data-name="Rectangle 3" fill="#0063a4" d="M170.004 31.944h2.987v.66h-2.987z"/><path data-name="Path 15" d="M103.375 28.929a.3.3 0 00-.347-.234h-.147v-.916h.589c.526 0 .705.116.873.617l1.63 4.634c.137.4.284 1.034.284 1.034h.021a10.074 10.074 0 01.284-1.034l1.63-4.634c.178-.5.347-.617.873-.617h.589v.916h-.147c-.19 0-.284.042-.347.234l-2.334 6.371h-1.116z" fill="#963f2c"/><path data-name="Path 16" d="M110.79 34.639h.693v-6.168h-.693v-.66h2.114v.66h-.7v6.168h.7v.66h-2.114z" fill="#0063a4"/><path data-name="Path 17" d="M114.356 34.64h.453a.207.207 0 00.231-.234v-6.595h.673l3.775 5.337c.253.373.6.98.6.98h.021s-.053-.586-.053-.98V28.46c0-.458.189-.65.642-.65h.778v.66h-.452a.207.207 0 00-.231.234v6.594h-.673l-3.775-5.337c-.263-.362-.61-.969-.61-.969h-.021s.064.575.064.969v4.688c0 .458-.19.65-.642.65h-.778z" fill="#0063a4"/><path data-name="Path 18" d="M126.482 27.683c1.052 0 2.766.458 2.766 1.587v.618h-.694v-.419c0-.7-1.2-1.087-2.051-1.087a2.932 2.932 0 00-2.9 3.111 3.047 3.047 0 002.934 3.228 3.364 3.364 0 002.419-1.054l.42.544a3.906 3.906 0 01-2.85 1.214 3.729 3.729 0 01-3.691-3.931 3.658 3.658 0 013.649-3.814" fill="#0063a4"/><path data-name="Path 19" d="M131.384 28.476h-.684v-.66h4.228c.452 0 .641.191.641.65v.745h-.693v-.5a.207.207 0 00-.231-.234h-2.524v2.727h2.776v.66h-2.776v2.547a.207.207 0 00.231.234h2.6a.207.207 0 00.232-.234v-.5h.684v.746c0 .458-.19.65-.642.65h-3.2c-.451 0-.641-.192-.641-.65z" fill="#0063a4"/><path data-name="Path 20" d="M137.095 34.64h.452a.207.207 0 00.231-.234v-6.595h.673l3.775 5.337c.253.373.6.98.6.98h.021s-.053-.586-.053-.98V28.46c0-.458.189-.65.642-.65h.778v.66h-.452a.207.207 0 00-.231.234v6.594h-.673l-3.775-5.337c-.263-.362-.61-.969-.61-.969h-.021s.064.575.064.969v4.688c0 .458-.19.65-.642.65h-.778z" fill="#0063a4"/><path data-name="Path 21" d="M148.065 28.476h-1.83c-.148 0-.231.064-.231.234v.5h-.673v-.788c0-.458.148-.607.6-.607h5.005c.452 0 .6.149.6.607v.788h-.683v-.5c0-.17-.073-.234-.231-.234h-1.819v6.829h-.736z" fill="#0063a4"/><path data-name="Path 22" d="M156.517 28.476h-.683v-.66h2.965a3.745 3.745 0 010 7.489h-1.641c-.451 0-.641-.192-.641-.65zm.968 6.168h1.241a3.085 3.085 0 000-6.168h-1.469v5.934a.207.207 0 00.231.234" fill="#0063a4"/><path data-name="Path 23" d="M164.566 28.476h-.683v-.66h4.228c.452 0 .641.191.641.65v.745h-.693v-.5a.207.207 0 00-.231-.234h-2.524v2.727h2.776v.66h-2.776v2.547a.207.207 0 00.231.234h2.6a.207.207 0 00.232-.234v-.5h.684v.746c0 .458-.19.65-.642.65h-3.2c-.451 0-.641-.192-.641-.65z" fill="#0063a4"/><path data-name="Path 24" d="M174.305 28.695h-.684v-.916h3.27a2.222 2.222 0 012.325 2.354 2.248 2.248 0 01-2.325 2.386h-1.535V35.3h-1.052zm2.419 2.909a1.336 1.336 0 001.409-1.471 1.308 1.308 0 00-1.4-1.438h-1.378v2.909z" fill="#963f2c"/><path data-name="Path 25" d="M180.1 34.64h.133c.189 0 .3-.032.378-.234l2.419-6.594h.789l2.418 6.594c.074.2.179.234.379.234h.126v.66h-.336c-.526 0-.683-.106-.873-.618l-.641-1.768h-2.933l-.652 1.768c-.19.512-.337.618-.862.618h-.347zm4.6-2.376l-.978-2.674c-.126-.352-.284-.97-.284-.97h-.021s-.158.618-.284.97l-.967 2.674z" fill="#0063a4"/><path data-name="Path 26" d="M188.241 28.706a.207.207 0 00-.231-.234h-.453v-.66h.778c.452 0 .642.192.642.65v4.24a1.993 1.993 0 103.985-.021v-4.219c0-.458.189-.65.641-.65h.778v.66h-.452a.207.207 0 00-.231.234v4.027a2.729 2.729 0 01-5.458 0z" fill="#0063a4"/><path data-name="Path 27" d="M196.392 28.706a.207.207 0 00-.231-.234h-.453v-.66h.779c.452 0 .642.192.642.65v5.945a.207.207 0 00.231.234h2.449a.208.208 0 00.232-.234v-.5h.694v.746c0 .458-.189.65-.642.65h-3.061c-.451 0-.641-.192-.641-.65z" fill="#0063a4"/><path data-name="Path 28" d="M90.418 43.124h-.35v-.338h1.6a1.165 1.165 0 110 2.33h-.872v1.506h-.377zm1.2 1.653a.773.773 0 00.829-.834.761.761 0 00-.824-.818h-.83v1.653z" fill="#963f2c"/><path data-name="Path 29" d="M92.975 46.283h.07c.1 0 .157-.016.194-.12l1.239-3.377h.4l1.239 3.377c.038.1.092.12.194.12h.064v.338h-.172c-.269 0-.35-.054-.447-.316l-.328-.905h-1.5l-.334.905c-.1.262-.172.316-.442.316h-.178zm2.353-1.217l-.5-1.369c-.064-.18-.145-.5-.145-.5h-.011s-.081.316-.145.5l-.5 1.369z" fill="#963f2c"/><path data-name="Path 30" d="M97.293 43.124h-.35v-.338h1.605a1.033 1.033 0 011.088 1.091.984.984 0 01-.733 1.026v.011a.378.378 0 01.13.153l.544 1.091c.054.114.135.126.269.126h.075v.338h-.167c-.307 0-.4-.038-.523-.289l-.544-1.1a.333.333 0 00-.382-.229h-.634v1.615h-.377zm1.217 1.544a.7.7 0 00.732-.78.691.691 0 00-.727-.764h-.844v1.544z" fill="#963f2c"/><path data-name="Path 31" d="M102.554 43.124h-.35v-.338h2.014c.231 0 .323.1.323.333v.382h-.35v-.257a.106.106 0 00-.119-.12h-1.141v1.44h1.378v.338h-1.373v1.719h-.378z" fill="#963f2c"/><path data-name="Path 32" d="M105.51 43.124h-.349v-.338h1.6a1.033 1.033 0 011.089 1.091.985.985 0 01-.733 1.026v.011a.376.376 0 01.129.153l.544 1.091c.054.114.135.126.269.126h.075v.338h-.167c-.307 0-.4-.038-.522-.289l-.544-1.1a.333.333 0 00-.382-.229h-.636v1.615h-.377zm1.218 1.544a.7.7 0 00.733-.78.691.691 0 00-.727-.764h-.845v1.544z" fill="#963f2c"/><path data-name="Path 33" d="M109.036 43.125h-.35v-.335h2.165c.232 0 .329.1.329.333v.382h-.355v-.256a.106.106 0 00-.118-.12h-1.292v1.4h1.422v.338h-1.422v1.3a.106.106 0 00.119.12h1.33a.106.106 0 00.118-.12v-.256h.351v.381c0 .235-.1.333-.329.333h-1.637c-.232 0-.329-.1-.329-.333zm1.223-1.255h.41l-.469.649h-.318z" fill="#963f2c"/><path data-name="Path 34" d="M112.309 43.124h-.35v-.338h1.519a1.918 1.918 0 010 3.836h-.84c-.232 0-.329-.1-.329-.333zm.5 3.159h.635a1.58 1.58 0 000-3.159h-.754v3.039a.106.106 0 00.119.12" fill="#963f2c"/><path data-name="Path 35" d="M116.429 43.125h-.35v-.335h2.166c.232 0 .329.1.329.333v.382h-.355v-.256a.106.106 0 00-.118-.12h-1.292v1.4h1.422v.338h-1.422v1.3a.106.106 0 00.119.12h1.33a.106.106 0 00.119-.12v-.256h.351v.381c0 .235-.1.333-.329.333h-1.637c-.232 0-.329-.1-.329-.333zm1.222-1.255h.41l-.469.649h-.318z" fill="#963f2c"/><path data-name="Path 36" d="M119.703 43.124h-.35v-.338h1.6a1.033 1.033 0 011.089 1.091.985.985 0 01-.733 1.026v.011a.375.375 0 01.129.153l.544 1.091c.054.114.135.126.269.126h.077v.338h-.167c-.307 0-.4-.038-.522-.289l-.544-1.1a.333.333 0 00-.382-.229h-.636v1.615h-.378zm1.218 1.544a.7.7 0 00.732-.78.691.691 0 00-.727-.764h-.845v1.544z" fill="#963f2c"/><path data-name="Path 37" d="M122.901 46.284h.356v-3.159h-.356v-.338h1.083v.338h-.361v3.159h.361v.338h-1.083z" fill="#963f2c"/><path data-name="Path 38" d="M126.574 42.721c.539 0 1.417.234 1.417.813v.317h-.356v-.213c0-.36-.614-.557-1.049-.557a1.5 1.5 0 00-1.487 1.593 1.561 1.561 0 001.5 1.653 1.723 1.723 0 001.239-.54l.215.278a2 2 0 01-1.459.622 1.91 1.91 0 01-1.891-2.013 1.874 1.874 0 011.869-1.953" fill="#963f2c"/><path data-name="Path 39" d="M132.373 42.721a1.927 1.927 0 011.928 1.959 1.93 1.93 0 11-3.857 0 1.924 1.924 0 011.929-1.959m0 3.607a1.585 1.585 0 001.535-1.648 1.536 1.536 0 10-3.07 0 1.581 1.581 0 001.535 1.648" fill="#963f2c"/><path data-name="Path 40" d="M134.87 46.355l2.031-2.881a3.592 3.592 0 01.274-.349v-.009a2.629 2.629 0 01-.274.011h-1.508a.106.106 0 00-.118.12v.256h-.35v-.387c0-.235.1-.333.329-.333h2.386v.268l-2.026 2.881a3.276 3.276 0 01-.28.35v.011a2.691 2.691 0 01.28-.011h1.634a.106.106 0 00.118-.12v-.256h.35v.381c0 .235-.1.333-.329.333h-2.515z" fill="#963f2c"/><path data-name="Path 41" d="M138.198 46.283h.07c.1 0 .157-.016.194-.12l1.239-3.377h.4l1.238 3.377c.038.1.092.12.194.12h.064v.338h-.172c-.269 0-.35-.054-.447-.316l-.329-.905h-1.5l-.334.905c-.1.262-.172.316-.442.316h-.177zm2.353-1.217l-.5-1.369c-.064-.18-.145-.5-.145-.5h-.011s-.081.316-.145.5l-.5 1.369z" fill="#963f2c"/><path data-name="Path 42" d="M142.167 46.283h.232a.106.106 0 00.118-.12v-3.377h.345l1.934 2.734c.129.191.306.5.306.5h.011s-.027-.3-.027-.5v-2.405c0-.235.1-.333.328-.333h.4v.338h-.231a.106.106 0 00-.118.12v3.377h-.345l-1.933-2.733c-.135-.186-.313-.5-.313-.5h-.011s.033.295.033.5v2.4c0 .234-.1.332-.329.332h-.4z" fill="#963f2c"/><path data-name="Path 43" d="M146.366 46.283h.07c.1 0 .156-.016.194-.12l1.239-3.377h.4l1.238 3.377c.038.1.092.12.194.12h.065v.338h-.173c-.269 0-.35-.054-.447-.316l-.329-.905h-1.5l-.334.905c-.1.262-.172.316-.442.316h-.177zm2.353-1.217l-.5-1.369c-.064-.18-.145-.5-.145-.5h-.01s-.082.316-.146.5l-.5 1.369z" fill="#963f2c"/><path data-name="Path 44" d="M150.226 46.283h.2c.075 0 .113-.038.118-.12l.263-3.377h.383l1 2.231c.091.2.188.453.188.453h.011s.1-.257.183-.453l1-2.231h.382l.264 3.377c0 .082.043.12.118.12h.2v.338h-.366c-.231 0-.312-.1-.328-.332l-.178-2.33c-.016-.207-.016-.534-.016-.534h-.011a5.151 5.151 0 01-.194.534l-.9 1.948h-.328l-.895-1.948a6.978 6.978 0 01-.2-.545h-.011s0 .338-.016.545l-.178 2.33c-.016.234-.1.332-.329.332h-.36z" fill="#963f2c"/><path data-name="Path 45" d="M66.283 43.124h-.35v-.338h2.015c.231 0 .323.1.323.332v.382h-.35v-.257a.106.106 0 00-.119-.12H66.66v1.44h1.373v.338H66.66v1.716h-.377z" fill="#963f2c"/><path data-name="Path 46" d="M70.742 42.72a1.926 1.926 0 011.928 1.959 1.93 1.93 0 11-3.856 0 1.924 1.924 0 011.928-1.959m0 3.607a1.584 1.584 0 001.535-1.648 1.536 1.536 0 10-3.07 0 1.581 1.581 0 001.535 1.648" fill="#963f2c"/><path data-name="Path 47" d="M73.364 46.283h.231a.106.106 0 00.119-.12v-3.378h.345l1.934 2.734c.129.191.307.5.307.5h.011s-.027-.3-.027-.5v-2.402c0-.235.1-.333.329-.333h.4v.338h-.232a.106.106 0 00-.118.12v3.375h-.345l-1.934-2.734c-.135-.186-.312-.5-.312-.5h-.011s.032.295.032.5v2.4c0 .234-.1.333-.328.333h-.4z" fill="#963f2c"/><path data-name="Path 48" d="M78.075 43.125h-.35v-.339h1.519a1.918 1.918 0 010 3.836h-.841c-.231 0-.328-.1-.328-.333zm.5 3.159h.636a1.58 1.58 0 000-3.159h-.754v3.039a.106.106 0 00.118.12" fill="#963f2c"/><path data-name="Path 49" d="M82.194 43.124h-.35v-.338h2.166c.232 0 .329.1.329.333v.382h-.356v-.256a.106.106 0 00-.118-.12h-1.292v1.4h1.422v.338h-1.422v1.3a.107.107 0 00.119.12h1.33a.107.107 0 00.119-.12v-.256h.35v.381c0 .235-.1.333-.329.333h-1.638c-.231 0-.328-.1-.328-.333zm1.223-1.255h.409l-.468.649h-.318z" fill="#963f2c"/><g data-name="Group 1"><path data-name="Path 50" d="M85.477 43.124h-.35v-.338h2.165c.231 0 .328.1.328.332v.382h-.355v-.257a.106.106 0 00-.118-.12h-1.292v1.4h1.422v.338h-1.422v1.3a.106.106 0 00.118.12h1.33a.106.106 0 00.118-.12v-.256h.356v.382c0 .235-.1.333-.328.333h-1.642c-.232 0-.329-.1-.329-.333z" fill="#963f2c"/><path data-name="Path 51" d="M0 30.778a30.383 30.383 0 1130.381 30.778A30.581 30.581 0 010 30.778" fill="#0063a4"/></g><path data-name="Path 52" d="M14.252 29.715a1.375 1.375 0 11-1.376-1.394 1.385 1.385 0 011.376 1.394" fill="#963f2c"/><path data-name="Path 53" d="M12.344 25.85h-.007c0 .046 0 .089.009 0" fill="#fff"/><path data-name="Path 54" d="M12.363 25.5l-.005.108.006-.108z" fill="#fff"/><path data-name="Path 55" d="M12.093 25.6l-.012.241c0-.094.009-.171.013-.241z" fill="#fff"/><path data-name="Path 56" d="M50.441 26.036c-1.016.326-2.008.718-3.009 1.089s-2.007.734-2.991 1.136l-2.958 1.228-3.358 1.387-.07.029c.761.348 1.519.7 2.287 1.04l2.708 1.306 2.587 1.425c.858.477 1.735.94 2.524 1.482a13.866 13.866 0 011.172.824l1.137.854-1.138-.854a13.793 13.793 0 00-1.172-.824c-.789-.542-1.666-1.005-2.524-1.482l-2.587-1.425-2.708-1.306c-.768-.342-1.526-.692-2.287-1.04l.07-.029 3.358-1.387 2.958-1.228c.984-.4 2-.756 2.991-1.136s1.993-.762 3.009-1.089c1.006-.353 2.037-.632 3.055-.948-1.018.316-2.05.6-3.056.949m-13.264 4.432l-1.057-.456a33.878 33.878 0 00.001 0zm-1.615 1.467l-2.962 1.219c-.99.412-1.991.779-3 1.149s-2.019.707-3.04 1.028-2.048.62-3.092.871l-1.553.382-1.578.316c-.267.051-.51.107-.8.153l-.791.116-1.587.23 1.586-.23.791-.116c.286-.046.529-.1.8-.153l1.578-.316 1.553-.382c1.044-.251 2.07-.554 3.092-.871s2.034-.666 3.04-1.028 2.005-.737 3-1.149l2.962-1.219 1.061-.438zm-20.336 3.926h-.387a11.715 11.715 0 01-2.9-.444 6.023 6.023 0 01-2.439-1.335 3.726 3.726 0 01-.773-1.076 3.968 3.968 0 01-.371-1.264l-.015-.458.039-.444v-.017l.007-.038.024-.119.045-.213a4.807 4.807 0 01.265-.8 5.976 5.976 0 01.913-1.468 6.542 6.542 0 011.287-1.17 6.385 6.385 0 01.745-.447 5.26 5.26 0 01.389-.183l.212-.088.2-.077.039-.012.075-.022.126-.036.3-.083c.105-.033.231-.059.352-.084.073-.015.146-.03.215-.047a9.671 9.671 0 011.137-.15c.253-.017.512-.026.774-.026a14.385 14.385 0 011.583.093 21.31 21.31 0 012.369.409c.59.129 1.164.288 1.772.456l.6.166c.506.134 1.025.288 1.528.436.283.084.567.168.849.248l2.36.736 1.185.372.579.182.571.205 2.341.84 2.341.84.916.329-1.749.654a68.27 68.27 0 01-2.917 1.036 86.67 86.67 0 01-5.926 1.777c-.312.08-.642.155-.962.228l-.541.124-.757.174c-.143.031-.3.06-.466.089l-.275.05-1.517.277-1.524.2-.772.1c-.06.008-.136.014-.211.02l-.15.012-.371.024c-.361.017-.747.026-1.112.026m-.08 1.65h-.1.1l.4-.012zm-.321-1.265a14.623 14.623 0 01-1.522-.137 14.623 14.623 0 001.522.137h.385-.385m-3-.46a6.408 6.408 0 01-2.594-1.426 4.122 4.122 0 01-.853-1.186 4.4 4.4 0 01-.409-1.4l-.017-.5.041-.468v-.039l.012-.058.024-.119.047-.218a5.207 5.207 0 01.288-.87 6.373 6.373 0 01.971-1.564q.148-.178.309-.344-.161.166-.309.344a6.373 6.373 0 00-.971 1.564 5.207 5.207 0 00-.288.87l-.047.218-.024.119-.012.058v.039l-.041.468.017.5a4.4 4.4 0 00.409 1.4 4.122 4.122 0 00.853 1.186 6.408 6.408 0 002.594 1.426q.363.109.733.188-.371-.08-.733-.188m-1.123-9.092a6.823 6.823 0 01.789-.474c.14-.071.261-.131.415-.2l.213-.088.212-.083-.212.083-.213.088a4.086 4.086 0 00-.415.2 6.823 6.823 0 00-.789.474q-.189.132-.37.275.181-.143.37-.275m1.388-1.1c0 .07-.008.148-.013.241zm.245.257zm.017-.005l.039-.012.074-.022.13-.038.3-.084c.173-.055.4-.091.592-.138a9.949 9.949 0 011.193-.157 9.949 9.949 0 00-1.193.157c-.2.046-.419.083-.592.138l-.3.084-.13.038-.074.022-.039.012h-.013zm.007-.346c0 .038 0 .077-.006.109zm3.034-1.528h.146a18.188 18.188 0 013.091.314 32.89 32.89 0 013 .711 111.37 111.37 0 015.86 1.806c.488.165.96.322 1.457.5l1.431.538 2.868 1.07c.24.092.478.181.716.27-.238-.089-.477-.178-.716-.27l-2.863-1.076-1.431-.538c-.5-.179-.97-.336-1.457-.5a110.791 110.791 0 00-5.86-1.806 33.048 33.048 0 00-3-.711 18.188 18.188 0 00-3.091-.314c-.169 0-.339.006-.509.011.121 0 .242-.012.362-.012m38.467 1a.38.38 0 00-.461-.266l-1.508.368c-.49.118-1.012.246-1.525.4-.843.225-1.693.5-2.515.771l-.469.153-2.964.968-2.943 1.063c-1.454.555-2.895 1.094-4.291 1.617l-.917-.4a76.615 76.615 0 00-1.878-.719c-.336-.126-.672-.251-1.011-.38l-2.864-1.077-1.431-.538c-.408-.147-.795-.277-1.185-.409l-.284-.1a112.291 112.291 0 00-5.88-1.813 33.075 33.075 0 00-3.035-.718 18.524 18.524 0 00-3.155-.32h-.15a11.357 11.357 0 00-3.053.4 8.417 8.417 0 00-2.978 1.464 8.523 8.523 0 00-2.205 2.5 7.481 7.481 0 00-.68 1.559c-.047.157-.083.29-.113.421l-.043.2-.042.214-.018.1a.788.788 0 00-.015.095l-.006.062-.017.192-.032.391v.066l.024.656v.02a.331.331 0 000 .048l.069.422.036.2.009.05a.706.706 0 00.028.113l.029.1a6.359 6.359 0 00.308.855 6.023 6.023 0 00.977 1.529 7.226 7.226 0 002.923 1.921 11.738 11.738 0 003.3.688c.263.021.521.032.827.043h.435l.4-.012c.1 0 .19-.006.281-.008a6.5 6.5 0 00.543-.024c.266-.02.536-.042.819-.071l1.6-.232.791-.115c.2-.032.368-.066.539-.1l.273-.054 1.581-.317 1.569-.385c1.12-.269 2.2-.594 3.114-.878.972-.3 1.972-.642 3.056-1.032l.175-.065c.933-.344 1.9-.7 2.838-1.092l2.96-1.218.92-.38 2.522.992 2.966 1.157c.617.248 1.228.532 1.818.807.335.156.669.312 1.008.463.231.108.469.216.708.325.687.313 1.4.637 2.042 1 .607.306 1.174.654 1.721.99.288.177.576.354.869.526a.379.379 0 00.511-.123.391.391 0 00-.092-.524l-1.134-.851a14.154 14.154 0 00-1.194-.839c-.677-.464-1.42-.874-2.138-1.27l-.409-.226-2.586-1.407-.018-.01-2.708-1.306c-.5-.224-.993-.448-1.482-.672l2.6-1.075 2.959-1.228c.627-.256 1.281-.5 1.914-.733.356-.132.712-.264 1.067-.4l.752-.281a48.181 48.181 0 012.238-.8c.669-.234 1.355-.438 2.018-.636.346-.1.691-.205 1.035-.312a.389.389 0 00.255-.481" fill="#fff"/></svg>