<svg xmlns="http://www.w3.org/2000/svg" width="49.873" height="44.882"><g data-name="Group 32"><path data-name="Path 96" d="M38.309 13.524h-.01a6.789 6.789 0 01-6.8-6.762 6.791 6.791 0 016.81-6.765 6.789 6.789 0 016.8 6.762 6.8 6.8 0 01-6.8 6.762z" fill="#cd9e69"/><path data-name="Path 97" d="M24.934 28.805c3.61 0 7.011 2.7 8.868 7.062a5.484 5.484 0 01-1.438 6.276 11.164 11.164 0 01-6.135 2.714l-.119.01c-.39.01-.777.019-1.167.019s-.777-.01-1.167-.019l-.119-.01a11.09 11.09 0 01-6.132-2.714 5.484 5.484 0 01-1.436-6.273c1.833-4.36 5.234-7.062 8.844-7.062z" fill="#fff"/><path data-name="Path 98" d="M24.934 27.127a4.917 4.917 0 01-4.927-4.9 4.912 4.912 0 014.927-4.9 4.917 4.917 0 014.927 4.9 4.917 4.917 0 01-4.927 4.9z" fill="#fff"/><path data-name="Path 99" d="M11.578 13.524h-.019a5.309 5.309 0 01-5.317-5.292 5.312 5.312 0 015.326-5.287 5.318 5.318 0 015.326 5.287 5.327 5.327 0 01-5.316 5.287z" fill="#cd9e69"/><path data-name="Path 100" d="M.059 26.011a11.986 11.986 0 015.985-9.376 10.935 10.935 0 015.505-1.535h.029a11.374 11.374 0 016.8 2.394l.618.46-.39.668a7.214 7.214 0 00-.978 3.621 7.234 7.234 0 001.768 4.719l.639.738-.818.538a14.908 14.908 0 00-5.336 6.723c-.029.08-.06.15-.09.23a7.444 7.444 0 00.719 6.694l.569.888-2.552-1.081a31.323 31.323 0 01-8.2-5.077 12.316 12.316 0 01-4.268-10.6z" fill="#cd9e69"/><path data-name="Path 101" d="M36.091 35.176c-.029-.08-.06-.15-.09-.23a14.96 14.96 0 00-5.332-6.724l-.818-.538.639-.738a7.224 7.224 0 001.765-4.718 7.225 7.225 0 00-.978-3.621l-.39-.668.618-.46a11.393 11.393 0 016.793-2.384h.019a10.9 10.9 0 015.515 1.535 11.985 11.985 0 015.984 9.376 12.311 12.311 0 01-4.278 10.6 31.149 31.149 0 01-8.2 5.077l-2.813 1.208.629-.879a7.209 7.209 0 00.939-6.84z" fill="#cd9e69"/></g></svg>